<svg xmlns="http://www.w3.org/2000/svg" xmlns:xlink="http://www.w3.org/1999/xlink" width="200" zoomAndPan="magnify" viewBox="0 0 150 74.999997" height="100" preserveAspectRatio="xMidYMid meet" version="1.0"><defs><g/></defs><g fill="#ff00ff" fill-opacity="1"><g transform="translate(26.519532, 33.789058)"><g><path d="M 13.828125 -21 C 12.390625 -21 11.429688 -20.96875 10.980469 -20.878906 C 10.558594 -20.820312 10.199219 -20.671875 9.960938 -20.429688 C 9.71875 -20.191406 9.511719 -19.738281 9.359375 -19.109375 C 9.300781 -18.75 9.148438 -17.96875 8.96875 -16.800781 L 8.878906 -15.988281 L 13.140625 -15.988281 L 13.230469 -16.800781 Z M 8.699219 -14.878906 L 7.378906 -5.308594 C 7.351562 -5.011719 7.320312 -4.828125 7.261719 -4.710938 C 7.261719 -4.589844 7.199219 -4.46875 7.140625 -4.410156 C 7.078125 -4.351562 6.988281 -4.289062 6.839844 -4.261719 C 6.75 -4.261719 6.539062 -4.230469 6.179688 -4.230469 L 2.671875 -4.230469 C 2.460938 -4.230469 2.308594 -4.261719 2.191406 -4.261719 C 2.070312 -4.289062 1.949219 -4.320312 1.828125 -4.378906 C 1.710938 -4.46875 1.589844 -4.589844 1.441406 -4.710938 C 1.320312 -4.828125 1.109375 -5.070312 0.78125 -5.371094 L 0.570312 -3.988281 C 0.449219 -3.148438 0.359375 -2.519531 0.328125 -2.128906 C 0.328125 -1.949219 0.300781 -1.769531 0.300781 -1.621094 C 0.300781 -1.261719 0.359375 -0.960938 0.480469 -0.71875 C 0.660156 -0.390625 1.050781 -0.179688 1.679688 -0.0898438 C 2.101562 -0.03125 2.820312 0 3.898438 0 L 7.019531 0 C 8.101562 0 8.820312 -0.03125 9.238281 -0.0898438 C 9.960938 -0.179688 10.441406 -0.421875 10.679688 -0.808594 C 10.890625 -1.109375 11.039062 -1.558594 11.160156 -2.21875 C 11.25 -2.578125 11.371094 -3.269531 11.488281 -4.230469 L 12.960938 -14.878906 Z M 8.699219 -14.878906 "/></g></g></g><g fill="#ff00ff" fill-opacity="1"><g transform="translate(39.749519, 33.789058)"><g><path d="M 6.421875 -14.851562 C 5.039062 -14.851562 4.140625 -14.851562 3.71875 -14.789062 C 3.179688 -14.730469 2.761719 -14.550781 2.460938 -14.28125 C 2.191406 -14.011719 1.980469 -13.53125 1.828125 -12.808594 L 1.46875 -10.648438 L 0.570312 -4.230469 C 0.421875 -3.03125 0.328125 -2.25 0.300781 -1.859375 L 0.300781 -1.621094 C 0.300781 -1.230469 0.359375 -0.929688 0.480469 -0.691406 C 0.660156 -0.421875 0.960938 -0.238281 1.378906 -0.121094 C 1.800781 -0.0585938 2.578125 0 3.78125 0 L 15.121094 0 L 15.121094 -0.511719 C 15.121094 -1.378906 15.121094 -2.011719 15.058594 -2.371094 C 15.03125 -3 14.910156 -3.449219 14.671875 -3.691406 C 14.488281 -3.929688 14.160156 -4.078125 13.679688 -4.140625 C 13.351562 -4.199219 12.601562 -4.230469 11.429688 -4.230469 L 4.828125 -4.230469 C 4.890625 -4.53125 4.921875 -4.738281 4.921875 -4.828125 C 4.949219 -5.011719 4.980469 -5.128906 5.039062 -5.191406 C 5.101562 -5.25 5.191406 -5.308594 5.28125 -5.308594 L 12.03125 -5.308594 C 13.078125 -5.308594 13.800781 -5.339844 14.191406 -5.398438 C 14.789062 -5.488281 15.210938 -5.671875 15.480469 -5.910156 C 15.71875 -6.148438 15.929688 -6.570312 16.050781 -7.140625 C 16.171875 -7.558594 16.289062 -8.339844 16.441406 -9.539062 L 16.621094 -10.648438 C 16.738281 -11.609375 16.828125 -12.238281 16.859375 -12.601562 C 16.890625 -12.839844 16.890625 -13.050781 16.890625 -13.230469 C 16.890625 -13.828125 16.769531 -14.25 16.46875 -14.460938 C 16.230469 -14.671875 15.78125 -14.789062 15.121094 -14.820312 C 14.761719 -14.851562 14.039062 -14.851562 12.960938 -14.851562 Z M 6.480469 -10.648438 L 12.328125 -10.648438 C 12.300781 -10.289062 12.269531 -10.078125 12.238281 -9.960938 C 12.238281 -9.839844 12.210938 -9.75 12.148438 -9.691406 C 12.089844 -9.628906 11.96875 -9.570312 11.789062 -9.539062 L 5.578125 -9.539062 C 5.640625 -9.898438 5.671875 -10.109375 5.671875 -10.199219 C 5.730469 -10.351562 5.761719 -10.410156 5.789062 -10.46875 C 5.851562 -10.53125 5.910156 -10.589844 5.96875 -10.621094 C 6.03125 -10.648438 6.210938 -10.648438 6.480469 -10.648438 Z M 6.480469 -10.648438 "/></g></g></g><g fill="#ff00ff" fill-opacity="1"><g transform="translate(56.459506, 33.789058)"><g><path d="M 1.679688 -10.648438 L 0.539062 -2.519531 C 0.511719 -2.191406 0.480469 -1.980469 0.449219 -1.859375 C 0.421875 -1.710938 0.390625 -1.558594 0.328125 -1.441406 C 0.269531 -1.261719 0.121094 -1.078125 -0.121094 -0.839844 C -0.238281 -0.691406 -0.480469 -0.421875 -0.898438 0 L 0.359375 0 C 1.019531 0 1.46875 -0.03125 1.738281 -0.03125 C 2.371094 -0.0585938 2.851562 -0.0898438 3.148438 -0.148438 C 3.628906 -0.269531 3.960938 -0.449219 4.199219 -0.71875 C 4.378906 -0.960938 4.53125 -1.320312 4.648438 -1.800781 C 4.769531 -2.21875 4.890625 -3.03125 5.039062 -4.230469 L 5.761719 -9.421875 C 5.820312 -9.808594 5.878906 -10.050781 5.910156 -10.140625 C 5.96875 -10.320312 6.03125 -10.441406 6.089844 -10.5 C 6.179688 -10.558594 6.328125 -10.621094 6.511719 -10.621094 C 6.660156 -10.648438 6.960938 -10.648438 7.410156 -10.648438 L 12.511719 -10.648438 C 13.769531 -10.648438 14.578125 -10.679688 14.96875 -10.710938 C 15.601562 -10.800781 16.050781 -10.921875 16.320312 -11.160156 C 16.621094 -11.398438 16.828125 -11.820312 16.980469 -12.390625 C 17.101562 -12.808594 17.21875 -13.621094 17.398438 -14.878906 L 5.878906 -14.878906 C 4.828125 -14.878906 4.109375 -14.851562 3.691406 -14.761719 C 3.238281 -14.699219 2.910156 -14.550781 2.671875 -14.308594 C 2.398438 -14.070312 2.191406 -13.589844 2.039062 -12.929688 C 1.980469 -12.570312 1.859375 -11.789062 1.679688 -10.648438 Z M 1.679688 -10.648438 "/></g></g></g><g fill="#ff00ff" fill-opacity="1"><g transform="translate(73.679486, 33.789058)"><g><path d="M 6.421875 -14.851562 C 5.039062 -14.851562 4.140625 -14.851562 3.71875 -14.789062 C 3.179688 -14.730469 2.761719 -14.550781 2.460938 -14.28125 C 2.191406 -14.011719 1.980469 -13.53125 1.828125 -12.808594 L 1.46875 -10.648438 L 0.570312 -4.230469 C 0.421875 -3.03125 0.328125 -2.25 0.300781 -1.859375 L 0.300781 -1.621094 C 0.300781 -1.230469 0.359375 -0.929688 0.480469 -0.691406 C 0.660156 -0.421875 0.960938 -0.238281 1.378906 -0.121094 C 1.800781 -0.0585938 2.578125 0 3.78125 0 L 15.121094 0 L 15.121094 -0.511719 C 15.121094 -1.378906 15.121094 -2.011719 15.058594 -2.371094 C 15.03125 -3 14.910156 -3.449219 14.671875 -3.691406 C 14.488281 -3.929688 14.160156 -4.078125 13.679688 -4.140625 C 13.351562 -4.199219 12.601562 -4.230469 11.429688 -4.230469 L 4.828125 -4.230469 C 4.890625 -4.53125 4.921875 -4.738281 4.921875 -4.828125 C 4.949219 -5.011719 4.980469 -5.128906 5.039062 -5.191406 C 5.101562 -5.25 5.191406 -5.308594 5.28125 -5.308594 L 12.03125 -5.308594 C 13.078125 -5.308594 13.800781 -5.339844 14.191406 -5.398438 C 14.789062 -5.488281 15.210938 -5.671875 15.480469 -5.910156 C 15.71875 -6.148438 15.929688 -6.570312 16.050781 -7.140625 C 16.171875 -7.558594 16.289062 -8.339844 16.441406 -9.539062 L 16.621094 -10.648438 C 16.738281 -11.609375 16.828125 -12.238281 16.859375 -12.601562 C 16.890625 -12.839844 16.890625 -13.050781 16.890625 -13.230469 C 16.890625 -13.828125 16.769531 -14.25 16.46875 -14.460938 C 16.230469 -14.671875 15.78125 -14.789062 15.121094 -14.820312 C 14.761719 -14.851562 14.039062 -14.851562 12.960938 -14.851562 Z M 6.480469 -10.648438 L 12.328125 -10.648438 C 12.300781 -10.289062 12.269531 -10.078125 12.238281 -9.960938 C 12.238281 -9.839844 12.210938 -9.75 12.148438 -9.691406 C 12.089844 -9.628906 11.96875 -9.570312 11.789062 -9.539062 L 5.578125 -9.539062 C 5.640625 -9.898438 5.671875 -10.109375 5.671875 -10.199219 C 5.730469 -10.351562 5.761719 -10.410156 5.789062 -10.46875 C 5.851562 -10.53125 5.910156 -10.589844 5.96875 -10.621094 C 6.03125 -10.648438 6.210938 -10.648438 6.480469 -10.648438 Z M 6.480469 -10.648438 "/></g></g></g><g fill="#ff00ff" fill-opacity="1"><g transform="translate(90.389473, 33.789058)"><g><path d="M 1.800781 -10.648438 L 1.648438 -9.539062 L 1.050781 -5.308594 L 0.898438 -4.230469 L 0.601562 -2.101562 C 0.570312 -1.859375 0.539062 -1.679688 0.511719 -1.558594 C 0.449219 -1.410156 0.390625 -1.289062 0.300781 -1.140625 C 0.238281 -1.019531 0.0898438 -0.839844 -0.148438 -0.660156 C -0.269531 -0.539062 -0.511719 -0.328125 -0.898438 0 L 0.480469 0 C 1.621094 0 2.371094 -0.03125 2.761719 -0.0585938 C 3.328125 -0.121094 3.75 -0.269531 4.019531 -0.480469 C 4.320312 -0.691406 4.558594 -1.050781 4.679688 -1.589844 C 4.800781 -2.011719 4.980469 -2.878906 5.160156 -4.230469 L 5.308594 -5.308594 L 5.910156 -9.539062 C 5.96875 -9.839844 6 -10.019531 6 -10.109375 C 6.058594 -10.289062 6.089844 -10.441406 6.148438 -10.5 C 6.238281 -10.589844 6.359375 -10.621094 6.511719 -10.621094 C 6.628906 -10.648438 6.839844 -10.648438 7.171875 -10.648438 L 7.019531 -9.539062 L 6.421875 -5.308594 L 6.269531 -4.230469 L 5.671875 0 C 7.230469 0 8.21875 -0.0585938 8.640625 -0.148438 C 9.058594 -0.269531 9.359375 -0.421875 9.539062 -0.601562 C 9.78125 -0.839844 9.988281 -1.230469 10.109375 -1.738281 C 10.230469 -2.160156 10.351562 -2.96875 10.53125 -4.230469 L 10.679688 -5.308594 L 11.28125 -9.539062 C 11.339844 -9.808594 11.371094 -9.988281 11.371094 -10.078125 C 11.429688 -10.289062 11.460938 -10.410156 11.519531 -10.46875 C 11.609375 -10.558594 11.730469 -10.621094 11.851562 -10.621094 C 11.96875 -10.648438 12.238281 -10.648438 12.660156 -10.648438 L 12.511719 -9.539062 L 11.910156 -5.308594 L 11.761719 -4.230469 L 11.160156 0 C 12.660156 0 13.621094 -0.0585938 14.039062 -0.121094 C 14.550781 -0.238281 14.910156 -0.421875 15.148438 -0.691406 C 15.390625 -0.988281 15.539062 -1.410156 15.660156 -1.980469 C 15.75 -2.371094 15.871094 -3.121094 16.019531 -4.230469 L 16.171875 -5.308594 L 16.769531 -9.539062 L 16.921875 -10.648438 C 17.101562 -11.96875 17.191406 -12.808594 17.191406 -13.199219 C 17.191406 -13.738281 17.101562 -14.128906 16.890625 -14.371094 C 16.710938 -14.578125 16.410156 -14.730469 15.960938 -14.789062 C 15.601562 -14.851562 15 -14.878906 14.160156 -14.878906 C 13.980469 -14.878906 13.679688 -14.878906 13.261719 -14.851562 L 6.660156 -14.851562 C 6.238281 -14.878906 5.910156 -14.878906 5.730469 -14.878906 C 4.890625 -14.878906 4.289062 -14.851562 3.929688 -14.789062 C 3.421875 -14.730469 3.03125 -14.578125 2.789062 -14.339844 C 2.519531 -14.101562 2.308594 -13.648438 2.160156 -13.019531 C 2.101562 -12.628906 1.980469 -11.851562 1.800781 -10.648438 Z M 1.800781 -10.648438 "/></g></g></g><g fill="#ff00ff" fill-opacity="1"><g transform="translate(107.849459, 33.789058)"><g><path d="M 0.839844 -14.910156 C 1.140625 -14.609375 1.320312 -14.398438 1.410156 -14.28125 C 1.589844 -14.101562 1.679688 -13.921875 1.738281 -13.769531 C 1.800781 -13.648438 1.800781 -13.53125 1.800781 -13.351562 C 1.800781 -13.230469 1.800781 -13.019531 1.738281 -12.71875 L 1.441406 -10.679688 L 0.539062 -4.230469 C 0.449219 -3.511719 0.390625 -2.96875 0.359375 -2.671875 C 0.300781 -2.25 0.269531 -1.921875 0.269531 -1.648438 C 0.269531 -1.261719 0.328125 -0.960938 0.449219 -0.75 C 0.628906 -0.421875 0.988281 -0.210938 1.589844 -0.0898438 C 2.011719 -0.03125 2.789062 0 3.929688 0 L 10.828125 0 C 10.769531 0.539062 10.710938 0.929688 10.648438 1.109375 C 10.621094 1.351562 10.53125 1.53125 10.410156 1.648438 C 10.320312 1.769531 10.140625 1.828125 9.898438 1.890625 C 9.75 1.890625 9.421875 1.921875 8.878906 1.921875 L 3.691406 1.921875 C 2.789062 1.921875 2.128906 1.921875 1.769531 1.980469 C 1.261719 2.011719 0.871094 2.128906 0.570312 2.308594 C 0.210938 2.519531 -0.0898438 2.96875 -0.328125 3.691406 C -0.449219 4.078125 -0.628906 4.890625 -0.898438 6.148438 L 9.960938 6.148438 C 11.578125 6.148438 12.601562 6.089844 13.019531 5.96875 C 13.441406 5.851562 13.738281 5.699219 13.921875 5.460938 C 14.160156 5.160156 14.371094 4.710938 14.488281 4.109375 C 14.578125 3.71875 14.699219 3 14.820312 1.921875 L 15.089844 0 L 15.691406 -4.230469 L 16.589844 -10.679688 C 16.769531 -12 16.859375 -12.871094 16.859375 -13.261719 C 16.859375 -13.378906 16.859375 -13.5 16.828125 -13.558594 C 16.828125 -14.039062 16.679688 -14.371094 16.378906 -14.550781 C 16.140625 -14.730469 15.691406 -14.851562 15.058594 -14.878906 C 14.699219 -14.910156 14.011719 -14.910156 12.929688 -14.910156 L 12.328125 -10.679688 L 11.578125 -5.308594 C 11.519531 -5.070312 11.488281 -4.890625 11.460938 -4.769531 C 11.429688 -4.621094 11.371094 -4.5 11.308594 -4.410156 C 11.25 -4.351562 11.191406 -4.320312 11.070312 -4.289062 C 10.980469 -4.261719 10.710938 -4.230469 10.289062 -4.230469 L 4.828125 -4.230469 L 5.730469 -10.679688 C 5.910156 -12.089844 6.03125 -12.929688 6.03125 -13.171875 L 6.03125 -13.53125 C 6.03125 -13.949219 5.96875 -14.28125 5.789062 -14.460938 C 5.640625 -14.640625 5.371094 -14.761719 4.980469 -14.820312 C 4.679688 -14.878906 4.171875 -14.910156 3.421875 -14.910156 Z M 0.839844 -14.910156 "/></g></g></g><g fill="#00ffff" fill-opacity="1"><g transform="translate(25.019532, 33.789058)"><g><path d="M 13.828125 -21 C 12.390625 -21 11.429688 -20.96875 10.980469 -20.878906 C 10.558594 -20.820312 10.199219 -20.671875 9.960938 -20.429688 C 9.71875 -20.191406 9.511719 -19.738281 9.359375 -19.109375 C 9.300781 -18.75 9.148438 -17.96875 8.96875 -16.800781 L 8.878906 -15.988281 L 13.140625 -15.988281 L 13.230469 -16.800781 Z M 8.699219 -14.878906 L 7.378906 -5.308594 C 7.351562 -5.011719 7.320312 -4.828125 7.261719 -4.710938 C 7.261719 -4.589844 7.199219 -4.46875 7.140625 -4.410156 C 7.078125 -4.351562 6.988281 -4.289062 6.839844 -4.261719 C 6.75 -4.261719 6.539062 -4.230469 6.179688 -4.230469 L 2.671875 -4.230469 C 2.460938 -4.230469 2.308594 -4.261719 2.191406 -4.261719 C 2.070312 -4.289062 1.949219 -4.320312 1.828125 -4.378906 C 1.710938 -4.46875 1.589844 -4.589844 1.441406 -4.710938 C 1.320312 -4.828125 1.109375 -5.070312 0.78125 -5.371094 L 0.570312 -3.988281 C 0.449219 -3.148438 0.359375 -2.519531 0.328125 -2.128906 C 0.328125 -1.949219 0.300781 -1.769531 0.300781 -1.621094 C 0.300781 -1.261719 0.359375 -0.960938 0.480469 -0.71875 C 0.660156 -0.390625 1.050781 -0.179688 1.679688 -0.0898438 C 2.101562 -0.03125 2.820312 0 3.898438 0 L 7.019531 0 C 8.101562 0 8.820312 -0.03125 9.238281 -0.0898438 C 9.960938 -0.179688 10.441406 -0.421875 10.679688 -0.808594 C 10.890625 -1.109375 11.039062 -1.558594 11.160156 -2.21875 C 11.25 -2.578125 11.371094 -3.269531 11.488281 -4.230469 L 12.960938 -14.878906 Z M 8.699219 -14.878906 "/></g></g></g><g fill="#00ffff" fill-opacity="1"><g transform="translate(38.249519, 33.789058)"><g><path d="M 6.421875 -14.851562 C 5.039062 -14.851562 4.140625 -14.851562 3.71875 -14.789062 C 3.179688 -14.730469 2.761719 -14.550781 2.460938 -14.28125 C 2.191406 -14.011719 1.980469 -13.53125 1.828125 -12.808594 L 1.46875 -10.648438 L 0.570312 -4.230469 C 0.421875 -3.03125 0.328125 -2.25 0.300781 -1.859375 L 0.300781 -1.621094 C 0.300781 -1.230469 0.359375 -0.929688 0.480469 -0.691406 C 0.660156 -0.421875 0.960938 -0.238281 1.378906 -0.121094 C 1.800781 -0.0585938 2.578125 0 3.78125 0 L 15.121094 0 L 15.121094 -0.511719 C 15.121094 -1.378906 15.121094 -2.011719 15.058594 -2.371094 C 15.03125 -3 14.910156 -3.449219 14.671875 -3.691406 C 14.488281 -3.929688 14.160156 -4.078125 13.679688 -4.140625 C 13.351562 -4.199219 12.601562 -4.230469 11.429688 -4.230469 L 4.828125 -4.230469 C 4.890625 -4.53125 4.921875 -4.738281 4.921875 -4.828125 C 4.949219 -5.011719 4.980469 -5.128906 5.039062 -5.191406 C 5.101562 -5.25 5.191406 -5.308594 5.28125 -5.308594 L 12.03125 -5.308594 C 13.078125 -5.308594 13.800781 -5.339844 14.191406 -5.398438 C 14.789062 -5.488281 15.210938 -5.671875 15.480469 -5.910156 C 15.71875 -6.148438 15.929688 -6.570312 16.050781 -7.140625 C 16.171875 -7.558594 16.289062 -8.339844 16.441406 -9.539062 L 16.621094 -10.648438 C 16.738281 -11.609375 16.828125 -12.238281 16.859375 -12.601562 C 16.890625 -12.839844 16.890625 -13.050781 16.890625 -13.230469 C 16.890625 -13.828125 16.769531 -14.25 16.46875 -14.460938 C 16.230469 -14.671875 15.78125 -14.789062 15.121094 -14.820312 C 14.761719 -14.851562 14.039062 -14.851562 12.960938 -14.851562 Z M 6.480469 -10.648438 L 12.328125 -10.648438 C 12.300781 -10.289062 12.269531 -10.078125 12.238281 -9.960938 C 12.238281 -9.839844 12.210938 -9.75 12.148438 -9.691406 C 12.089844 -9.628906 11.96875 -9.570312 11.789062 -9.539062 L 5.578125 -9.539062 C 5.640625 -9.898438 5.671875 -10.109375 5.671875 -10.199219 C 5.730469 -10.351562 5.761719 -10.410156 5.789062 -10.46875 C 5.851562 -10.53125 5.910156 -10.589844 5.96875 -10.621094 C 6.03125 -10.648438 6.210938 -10.648438 6.480469 -10.648438 Z M 6.480469 -10.648438 "/></g></g></g><g fill="#00ffff" fill-opacity="1"><g transform="translate(54.959506, 33.789058)"><g><path d="M 1.679688 -10.648438 L 0.539062 -2.519531 C 0.511719 -2.191406 0.480469 -1.980469 0.449219 -1.859375 C 0.421875 -1.710938 0.390625 -1.558594 0.328125 -1.441406 C 0.269531 -1.261719 0.121094 -1.078125 -0.121094 -0.839844 C -0.238281 -0.691406 -0.480469 -0.421875 -0.898438 0 L 0.359375 0 C 1.019531 0 1.46875 -0.03125 1.738281 -0.03125 C 2.371094 -0.0585938 2.851562 -0.0898438 3.148438 -0.148438 C 3.628906 -0.269531 3.960938 -0.449219 4.199219 -0.71875 C 4.378906 -0.960938 4.53125 -1.320312 4.648438 -1.800781 C 4.769531 -2.21875 4.890625 -3.03125 5.039062 -4.230469 L 5.761719 -9.421875 C 5.820312 -9.808594 5.878906 -10.050781 5.910156 -10.140625 C 5.96875 -10.320312 6.03125 -10.441406 6.089844 -10.5 C 6.179688 -10.558594 6.328125 -10.621094 6.511719 -10.621094 C 6.660156 -10.648438 6.960938 -10.648438 7.410156 -10.648438 L 12.511719 -10.648438 C 13.769531 -10.648438 14.578125 -10.679688 14.96875 -10.710938 C 15.601562 -10.800781 16.050781 -10.921875 16.320312 -11.160156 C 16.621094 -11.398438 16.828125 -11.820312 16.980469 -12.390625 C 17.101562 -12.808594 17.21875 -13.621094 17.398438 -14.878906 L 5.878906 -14.878906 C 4.828125 -14.878906 4.109375 -14.851562 3.691406 -14.761719 C 3.238281 -14.699219 2.910156 -14.550781 2.671875 -14.308594 C 2.398438 -14.070312 2.191406 -13.589844 2.039062 -12.929688 C 1.980469 -12.570312 1.859375 -11.789062 1.679688 -10.648438 Z M 1.679688 -10.648438 "/></g></g></g><g fill="#00ffff" fill-opacity="1"><g transform="translate(72.179486, 33.789058)"><g><path d="M 6.421875 -14.851562 C 5.039062 -14.851562 4.140625 -14.851562 3.71875 -14.789062 C 3.179688 -14.730469 2.761719 -14.550781 2.460938 -14.28125 C 2.191406 -14.011719 1.980469 -13.53125 1.828125 -12.808594 L 1.46875 -10.648438 L 0.570312 -4.230469 C 0.421875 -3.03125 0.328125 -2.25 0.300781 -1.859375 L 0.300781 -1.621094 C 0.300781 -1.230469 0.359375 -0.929688 0.480469 -0.691406 C 0.660156 -0.421875 0.960938 -0.238281 1.378906 -0.121094 C 1.800781 -0.0585938 2.578125 0 3.78125 0 L 15.121094 0 L 15.121094 -0.511719 C 15.121094 -1.378906 15.121094 -2.011719 15.058594 -2.371094 C 15.03125 -3 14.910156 -3.449219 14.671875 -3.691406 C 14.488281 -3.929688 14.160156 -4.078125 13.679688 -4.140625 C 13.351562 -4.199219 12.601562 -4.230469 11.429688 -4.230469 L 4.828125 -4.230469 C 4.890625 -4.53125 4.921875 -4.738281 4.921875 -4.828125 C 4.949219 -5.011719 4.980469 -5.128906 5.039062 -5.191406 C 5.101562 -5.25 5.191406 -5.308594 5.28125 -5.308594 L 12.03125 -5.308594 C 13.078125 -5.308594 13.800781 -5.339844 14.191406 -5.398438 C 14.789062 -5.488281 15.210938 -5.671875 15.480469 -5.910156 C 15.71875 -6.148438 15.929688 -6.570312 16.050781 -7.140625 C 16.171875 -7.558594 16.289062 -8.339844 16.441406 -9.539062 L 16.621094 -10.648438 C 16.738281 -11.609375 16.828125 -12.238281 16.859375 -12.601562 C 16.890625 -12.839844 16.890625 -13.050781 16.890625 -13.230469 C 16.890625 -13.828125 16.769531 -14.25 16.46875 -14.460938 C 16.230469 -14.671875 15.78125 -14.789062 15.121094 -14.820312 C 14.761719 -14.851562 14.039062 -14.851562 12.960938 -14.851562 Z M 6.480469 -10.648438 L 12.328125 -10.648438 C 12.300781 -10.289062 12.269531 -10.078125 12.238281 -9.960938 C 12.238281 -9.839844 12.210938 -9.75 12.148438 -9.691406 C 12.089844 -9.628906 11.96875 -9.570312 11.789062 -9.539062 L 5.578125 -9.539062 C 5.640625 -9.898438 5.671875 -10.109375 5.671875 -10.199219 C 5.730469 -10.351562 5.761719 -10.410156 5.789062 -10.46875 C 5.851562 -10.53125 5.910156 -10.589844 5.96875 -10.621094 C 6.03125 -10.648438 6.210938 -10.648438 6.480469 -10.648438 Z M 6.480469 -10.648438 "/></g></g></g><g fill="#00ffff" fill-opacity="1"><g transform="translate(88.889473, 33.789058)"><g><path d="M 1.800781 -10.648438 L 1.648438 -9.539062 L 1.050781 -5.308594 L 0.898438 -4.230469 L 0.601562 -2.101562 C 0.570312 -1.859375 0.539062 -1.679688 0.511719 -1.558594 C 0.449219 -1.410156 0.390625 -1.289062 0.300781 -1.140625 C 0.238281 -1.019531 0.0898438 -0.839844 -0.148438 -0.660156 C -0.269531 -0.539062 -0.511719 -0.328125 -0.898438 0 L 0.480469 0 C 1.621094 0 2.371094 -0.03125 2.761719 -0.0585938 C 3.328125 -0.121094 3.75 -0.269531 4.019531 -0.480469 C 4.320312 -0.691406 4.558594 -1.050781 4.679688 -1.589844 C 4.800781 -2.011719 4.980469 -2.878906 5.160156 -4.230469 L 5.308594 -5.308594 L 5.910156 -9.539062 C 5.96875 -9.839844 6 -10.019531 6 -10.109375 C 6.058594 -10.289062 6.089844 -10.441406 6.148438 -10.5 C 6.238281 -10.589844 6.359375 -10.621094 6.511719 -10.621094 C 6.628906 -10.648438 6.839844 -10.648438 7.171875 -10.648438 L 7.019531 -9.539062 L 6.421875 -5.308594 L 6.269531 -4.230469 L 5.671875 0 C 7.230469 0 8.21875 -0.0585938 8.640625 -0.148438 C 9.058594 -0.269531 9.359375 -0.421875 9.539062 -0.601562 C 9.78125 -0.839844 9.988281 -1.230469 10.109375 -1.738281 C 10.230469 -2.160156 10.351562 -2.96875 10.53125 -4.230469 L 10.679688 -5.308594 L 11.28125 -9.539062 C 11.339844 -9.808594 11.371094 -9.988281 11.371094 -10.078125 C 11.429688 -10.289062 11.460938 -10.410156 11.519531 -10.46875 C 11.609375 -10.558594 11.730469 -10.621094 11.851562 -10.621094 C 11.96875 -10.648438 12.238281 -10.648438 12.660156 -10.648438 L 12.511719 -9.539062 L 11.910156 -5.308594 L 11.761719 -4.230469 L 11.160156 0 C 12.660156 0 13.621094 -0.0585938 14.039062 -0.121094 C 14.550781 -0.238281 14.910156 -0.421875 15.148438 -0.691406 C 15.390625 -0.988281 15.539062 -1.410156 15.660156 -1.980469 C 15.75 -2.371094 15.871094 -3.121094 16.019531 -4.230469 L 16.171875 -5.308594 L 16.769531 -9.539062 L 16.921875 -10.648438 C 17.101562 -11.96875 17.191406 -12.808594 17.191406 -13.199219 C 17.191406 -13.738281 17.101562 -14.128906 16.890625 -14.371094 C 16.710938 -14.578125 16.410156 -14.730469 15.960938 -14.789062 C 15.601562 -14.851562 15 -14.878906 14.160156 -14.878906 C 13.980469 -14.878906 13.679688 -14.878906 13.261719 -14.851562 L 6.660156 -14.851562 C 6.238281 -14.878906 5.910156 -14.878906 5.730469 -14.878906 C 4.890625 -14.878906 4.289062 -14.851562 3.929688 -14.789062 C 3.421875 -14.730469 3.03125 -14.578125 2.789062 -14.339844 C 2.519531 -14.101562 2.308594 -13.648438 2.160156 -13.019531 C 2.101562 -12.628906 1.980469 -11.851562 1.800781 -10.648438 Z M 1.800781 -10.648438 "/></g></g></g><g fill="#00ffff" fill-opacity="1"><g transform="translate(106.34946, 33.789058)"><g><path d="M 0.839844 -14.910156 C 1.140625 -14.609375 1.320312 -14.398438 1.410156 -14.28125 C 1.589844 -14.101562 1.679688 -13.921875 1.738281 -13.769531 C 1.800781 -13.648438 1.800781 -13.53125 1.800781 -13.351562 C 1.800781 -13.230469 1.800781 -13.019531 1.738281 -12.71875 L 1.441406 -10.679688 L 0.539062 -4.230469 C 0.449219 -3.511719 0.390625 -2.96875 0.359375 -2.671875 C 0.300781 -2.25 0.269531 -1.921875 0.269531 -1.648438 C 0.269531 -1.261719 0.328125 -0.960938 0.449219 -0.75 C 0.628906 -0.421875 0.988281 -0.210938 1.589844 -0.0898438 C 2.011719 -0.03125 2.789062 0 3.929688 0 L 10.828125 0 C 10.769531 0.539062 10.710938 0.929688 10.648438 1.109375 C 10.621094 1.351562 10.53125 1.53125 10.410156 1.648438 C 10.320312 1.769531 10.140625 1.828125 9.898438 1.890625 C 9.75 1.890625 9.421875 1.921875 8.878906 1.921875 L 3.691406 1.921875 C 2.789062 1.921875 2.128906 1.921875 1.769531 1.980469 C 1.261719 2.011719 0.871094 2.128906 0.570312 2.308594 C 0.210938 2.519531 -0.0898438 2.96875 -0.328125 3.691406 C -0.449219 4.078125 -0.628906 4.890625 -0.898438 6.148438 L 9.960938 6.148438 C 11.578125 6.148438 12.601562 6.089844 13.019531 5.96875 C 13.441406 5.851562 13.738281 5.699219 13.921875 5.460938 C 14.160156 5.160156 14.371094 4.710938 14.488281 4.109375 C 14.578125 3.71875 14.699219 3 14.820312 1.921875 L 15.089844 0 L 15.691406 -4.230469 L 16.589844 -10.679688 C 16.769531 -12 16.859375 -12.871094 16.859375 -13.261719 C 16.859375 -13.378906 16.859375 -13.5 16.828125 -13.558594 C 16.828125 -14.039062 16.679688 -14.371094 16.378906 -14.550781 C 16.140625 -14.730469 15.691406 -14.851562 15.058594 -14.878906 C 14.699219 -14.910156 14.011719 -14.910156 12.929688 -14.910156 L 12.328125 -10.679688 L 11.578125 -5.308594 C 11.519531 -5.070312 11.488281 -4.890625 11.460938 -4.769531 C 11.429688 -4.621094 11.371094 -4.5 11.308594 -4.410156 C 11.25 -4.351562 11.191406 -4.320312 11.070312 -4.289062 C 10.980469 -4.261719 10.710938 -4.230469 10.289062 -4.230469 L 4.828125 -4.230469 L 5.730469 -10.679688 C 5.910156 -12.089844 6.03125 -12.929688 6.03125 -13.171875 L 6.03125 -13.53125 C 6.03125 -13.949219 5.96875 -14.28125 5.789062 -14.460938 C 5.640625 -14.640625 5.371094 -14.761719 4.980469 -14.820312 C 4.679688 -14.878906 4.171875 -14.910156 3.421875 -14.910156 Z M 0.839844 -14.910156 "/></g></g></g><g fill="#0383d0" fill-opacity="1"><g transform="translate(25.769532, 33.789058)"><g><path d="M 13.828125 -21 C 12.390625 -21 11.429688 -20.96875 10.980469 -20.878906 C 10.558594 -20.820312 10.199219 -20.671875 9.960938 -20.429688 C 9.71875 -20.191406 9.511719 -19.738281 9.359375 -19.109375 C 9.300781 -18.75 9.148438 -17.96875 8.96875 -16.800781 L 8.878906 -15.988281 L 13.140625 -15.988281 L 13.230469 -16.800781 Z M 8.699219 -14.878906 L 7.378906 -5.308594 C 7.351562 -5.011719 7.320312 -4.828125 7.261719 -4.710938 C 7.261719 -4.589844 7.199219 -4.46875 7.140625 -4.410156 C 7.078125 -4.351562 6.988281 -4.289062 6.839844 -4.261719 C 6.75 -4.261719 6.539062 -4.230469 6.179688 -4.230469 L 2.671875 -4.230469 C 2.460938 -4.230469 2.308594 -4.261719 2.191406 -4.261719 C 2.070312 -4.289062 1.949219 -4.320312 1.828125 -4.378906 C 1.710938 -4.46875 1.589844 -4.589844 1.441406 -4.710938 C 1.320312 -4.828125 1.109375 -5.070312 0.78125 -5.371094 L 0.570312 -3.988281 C 0.449219 -3.148438 0.359375 -2.519531 0.328125 -2.128906 C 0.328125 -1.949219 0.300781 -1.769531 0.300781 -1.621094 C 0.300781 -1.261719 0.359375 -0.960938 0.480469 -0.71875 C 0.660156 -0.390625 1.050781 -0.179688 1.679688 -0.0898438 C 2.101562 -0.03125 2.820312 0 3.898438 0 L 7.019531 0 C 8.101562 0 8.820312 -0.03125 9.238281 -0.0898438 C 9.960938 -0.179688 10.441406 -0.421875 10.679688 -0.808594 C 10.890625 -1.109375 11.039062 -1.558594 11.160156 -2.21875 C 11.25 -2.578125 11.371094 -3.269531 11.488281 -4.230469 L 12.960938 -14.878906 Z M 8.699219 -14.878906 "/></g></g></g><g fill="#0383d0" fill-opacity="1"><g transform="translate(38.999519, 33.789058)"><g><path d="M 6.421875 -14.851562 C 5.039062 -14.851562 4.140625 -14.851562 3.71875 -14.789062 C 3.179688 -14.730469 2.761719 -14.550781 2.460938 -14.28125 C 2.191406 -14.011719 1.980469 -13.53125 1.828125 -12.808594 L 1.46875 -10.648438 L 0.570312 -4.230469 C 0.421875 -3.03125 0.328125 -2.25 0.300781 -1.859375 L 0.300781 -1.621094 C 0.300781 -1.230469 0.359375 -0.929688 0.480469 -0.691406 C 0.660156 -0.421875 0.960938 -0.238281 1.378906 -0.121094 C 1.800781 -0.0585938 2.578125 0 3.78125 0 L 15.121094 0 L 15.121094 -0.511719 C 15.121094 -1.378906 15.121094 -2.011719 15.058594 -2.371094 C 15.03125 -3 14.910156 -3.449219 14.671875 -3.691406 C 14.488281 -3.929688 14.160156 -4.078125 13.679688 -4.140625 C 13.351562 -4.199219 12.601562 -4.230469 11.429688 -4.230469 L 4.828125 -4.230469 C 4.890625 -4.53125 4.921875 -4.738281 4.921875 -4.828125 C 4.949219 -5.011719 4.980469 -5.128906 5.039062 -5.191406 C 5.101562 -5.25 5.191406 -5.308594 5.28125 -5.308594 L 12.03125 -5.308594 C 13.078125 -5.308594 13.800781 -5.339844 14.191406 -5.398438 C 14.789062 -5.488281 15.210938 -5.671875 15.480469 -5.910156 C 15.71875 -6.148438 15.929688 -6.570312 16.050781 -7.140625 C 16.171875 -7.558594 16.289062 -8.339844 16.441406 -9.539062 L 16.621094 -10.648438 C 16.738281 -11.609375 16.828125 -12.238281 16.859375 -12.601562 C 16.890625 -12.839844 16.890625 -13.050781 16.890625 -13.230469 C 16.890625 -13.828125 16.769531 -14.25 16.46875 -14.460938 C 16.230469 -14.671875 15.78125 -14.789062 15.121094 -14.820312 C 14.761719 -14.851562 14.039062 -14.851562 12.960938 -14.851562 Z M 6.480469 -10.648438 L 12.328125 -10.648438 C 12.300781 -10.289062 12.269531 -10.078125 12.238281 -9.960938 C 12.238281 -9.839844 12.210938 -9.75 12.148438 -9.691406 C 12.089844 -9.628906 11.96875 -9.570312 11.789062 -9.539062 L 5.578125 -9.539062 C 5.640625 -9.898438 5.671875 -10.109375 5.671875 -10.199219 C 5.730469 -10.351562 5.761719 -10.410156 5.789062 -10.46875 C 5.851562 -10.53125 5.910156 -10.589844 5.96875 -10.621094 C 6.03125 -10.648438 6.210938 -10.648438 6.480469 -10.648438 Z M 6.480469 -10.648438 "/></g></g></g><g fill="#0383d0" fill-opacity="1"><g transform="translate(55.709506, 33.789058)"><g><path d="M 1.679688 -10.648438 L 0.539062 -2.519531 C 0.511719 -2.191406 0.480469 -1.980469 0.449219 -1.859375 C 0.421875 -1.710938 0.390625 -1.558594 0.328125 -1.441406 C 0.269531 -1.261719 0.121094 -1.078125 -0.121094 -0.839844 C -0.238281 -0.691406 -0.480469 -0.421875 -0.898438 0 L 0.359375 0 C 1.019531 0 1.46875 -0.03125 1.738281 -0.03125 C 2.371094 -0.0585938 2.851562 -0.0898438 3.148438 -0.148438 C 3.628906 -0.269531 3.960938 -0.449219 4.199219 -0.71875 C 4.378906 -0.960938 4.53125 -1.320312 4.648438 -1.800781 C 4.769531 -2.21875 4.890625 -3.03125 5.039062 -4.230469 L 5.761719 -9.421875 C 5.820312 -9.808594 5.878906 -10.050781 5.910156 -10.140625 C 5.96875 -10.320312 6.03125 -10.441406 6.089844 -10.5 C 6.179688 -10.558594 6.328125 -10.621094 6.511719 -10.621094 C 6.660156 -10.648438 6.960938 -10.648438 7.410156 -10.648438 L 12.511719 -10.648438 C 13.769531 -10.648438 14.578125 -10.679688 14.96875 -10.710938 C 15.601562 -10.800781 16.050781 -10.921875 16.320312 -11.160156 C 16.621094 -11.398438 16.828125 -11.820312 16.980469 -12.390625 C 17.101562 -12.808594 17.21875 -13.621094 17.398438 -14.878906 L 5.878906 -14.878906 C 4.828125 -14.878906 4.109375 -14.851562 3.691406 -14.761719 C 3.238281 -14.699219 2.910156 -14.550781 2.671875 -14.308594 C 2.398438 -14.070312 2.191406 -13.589844 2.039062 -12.929688 C 1.980469 -12.570312 1.859375 -11.789062 1.679688 -10.648438 Z M 1.679688 -10.648438 "/></g></g></g><g fill="#0383d0" fill-opacity="1"><g transform="translate(72.929486, 33.789058)"><g><path d="M 6.421875 -14.851562 C 5.039062 -14.851562 4.140625 -14.851562 3.71875 -14.789062 C 3.179688 -14.730469 2.761719 -14.550781 2.460938 -14.28125 C 2.191406 -14.011719 1.980469 -13.53125 1.828125 -12.808594 L 1.46875 -10.648438 L 0.570312 -4.230469 C 0.421875 -3.03125 0.328125 -2.25 0.300781 -1.859375 L 0.300781 -1.621094 C 0.300781 -1.230469 0.359375 -0.929688 0.480469 -0.691406 C 0.660156 -0.421875 0.960938 -0.238281 1.378906 -0.121094 C 1.800781 -0.0585938 2.578125 0 3.78125 0 L 15.121094 0 L 15.121094 -0.511719 C 15.121094 -1.378906 15.121094 -2.011719 15.058594 -2.371094 C 15.03125 -3 14.910156 -3.449219 14.671875 -3.691406 C 14.488281 -3.929688 14.160156 -4.078125 13.679688 -4.140625 C 13.351562 -4.199219 12.601562 -4.230469 11.429688 -4.230469 L 4.828125 -4.230469 C 4.890625 -4.53125 4.921875 -4.738281 4.921875 -4.828125 C 4.949219 -5.011719 4.980469 -5.128906 5.039062 -5.191406 C 5.101562 -5.25 5.191406 -5.308594 5.28125 -5.308594 L 12.03125 -5.308594 C 13.078125 -5.308594 13.800781 -5.339844 14.191406 -5.398438 C 14.789062 -5.488281 15.210938 -5.671875 15.480469 -5.910156 C 15.71875 -6.148438 15.929688 -6.570312 16.050781 -7.140625 C 16.171875 -7.558594 16.289062 -8.339844 16.441406 -9.539062 L 16.621094 -10.648438 C 16.738281 -11.609375 16.828125 -12.238281 16.859375 -12.601562 C 16.890625 -12.839844 16.890625 -13.050781 16.890625 -13.230469 C 16.890625 -13.828125 16.769531 -14.25 16.46875 -14.460938 C 16.230469 -14.671875 15.78125 -14.789062 15.121094 -14.820312 C 14.761719 -14.851562 14.039062 -14.851562 12.960938 -14.851562 Z M 6.480469 -10.648438 L 12.328125 -10.648438 C 12.300781 -10.289062 12.269531 -10.078125 12.238281 -9.960938 C 12.238281 -9.839844 12.210938 -9.75 12.148438 -9.691406 C 12.089844 -9.628906 11.96875 -9.570312 11.789062 -9.539062 L 5.578125 -9.539062 C 5.640625 -9.898438 5.671875 -10.109375 5.671875 -10.199219 C 5.730469 -10.351562 5.761719 -10.410156 5.789062 -10.46875 C 5.851562 -10.53125 5.910156 -10.589844 5.96875 -10.621094 C 6.03125 -10.648438 6.210938 -10.648438 6.480469 -10.648438 Z M 6.480469 -10.648438 "/></g></g></g><g fill="#0383d0" fill-opacity="1"><g transform="translate(89.639473, 33.789058)"><g><path d="M 1.800781 -10.648438 L 1.648438 -9.539062 L 1.050781 -5.308594 L 0.898438 -4.230469 L 0.601562 -2.101562 C 0.570312 -1.859375 0.539062 -1.679688 0.511719 -1.558594 C 0.449219 -1.410156 0.390625 -1.289062 0.300781 -1.140625 C 0.238281 -1.019531 0.0898438 -0.839844 -0.148438 -0.660156 C -0.269531 -0.539062 -0.511719 -0.328125 -0.898438 0 L 0.480469 0 C 1.621094 0 2.371094 -0.03125 2.761719 -0.0585938 C 3.328125 -0.121094 3.75 -0.269531 4.019531 -0.480469 C 4.320312 -0.691406 4.558594 -1.050781 4.679688 -1.589844 C 4.800781 -2.011719 4.980469 -2.878906 5.160156 -4.230469 L 5.308594 -5.308594 L 5.910156 -9.539062 C 5.96875 -9.839844 6 -10.019531 6 -10.109375 C 6.058594 -10.289062 6.089844 -10.441406 6.148438 -10.5 C 6.238281 -10.589844 6.359375 -10.621094 6.511719 -10.621094 C 6.628906 -10.648438 6.839844 -10.648438 7.171875 -10.648438 L 7.019531 -9.539062 L 6.421875 -5.308594 L 6.269531 -4.230469 L 5.671875 0 C 7.230469 0 8.21875 -0.0585938 8.640625 -0.148438 C 9.058594 -0.269531 9.359375 -0.421875 9.539062 -0.601562 C 9.78125 -0.839844 9.988281 -1.230469 10.109375 -1.738281 C 10.230469 -2.160156 10.351562 -2.96875 10.53125 -4.230469 L 10.679688 -5.308594 L 11.28125 -9.539062 C 11.339844 -9.808594 11.371094 -9.988281 11.371094 -10.078125 C 11.429688 -10.289062 11.460938 -10.410156 11.519531 -10.46875 C 11.609375 -10.558594 11.730469 -10.621094 11.851562 -10.621094 C 11.96875 -10.648438 12.238281 -10.648438 12.660156 -10.648438 L 12.511719 -9.539062 L 11.910156 -5.308594 L 11.761719 -4.230469 L 11.160156 0 C 12.660156 0 13.621094 -0.0585938 14.039062 -0.121094 C 14.550781 -0.238281 14.910156 -0.421875 15.148438 -0.691406 C 15.390625 -0.988281 15.539062 -1.410156 15.660156 -1.980469 C 15.75 -2.371094 15.871094 -3.121094 16.019531 -4.230469 L 16.171875 -5.308594 L 16.769531 -9.539062 L 16.921875 -10.648438 C 17.101562 -11.96875 17.191406 -12.808594 17.191406 -13.199219 C 17.191406 -13.738281 17.101562 -14.128906 16.890625 -14.371094 C 16.710938 -14.578125 16.410156 -14.730469 15.960938 -14.789062 C 15.601562 -14.851562 15 -14.878906 14.160156 -14.878906 C 13.980469 -14.878906 13.679688 -14.878906 13.261719 -14.851562 L 6.660156 -14.851562 C 6.238281 -14.878906 5.910156 -14.878906 5.730469 -14.878906 C 4.890625 -14.878906 4.289062 -14.851562 3.929688 -14.789062 C 3.421875 -14.730469 3.03125 -14.578125 2.789062 -14.339844 C 2.519531 -14.101562 2.308594 -13.648438 2.160156 -13.019531 C 2.101562 -12.628906 1.980469 -11.851562 1.800781 -10.648438 Z M 1.800781 -10.648438 "/></g></g></g><g fill="#0383d0" fill-opacity="1"><g transform="translate(107.099459, 33.789058)"><g><path d="M 0.839844 -14.910156 C 1.140625 -14.609375 1.320312 -14.398438 1.410156 -14.28125 C 1.589844 -14.101562 1.679688 -13.921875 1.738281 -13.769531 C 1.800781 -13.648438 1.800781 -13.53125 1.800781 -13.351562 C 1.800781 -13.230469 1.800781 -13.019531 1.738281 -12.71875 L 1.441406 -10.679688 L 0.539062 -4.230469 C 0.449219 -3.511719 0.390625 -2.96875 0.359375 -2.671875 C 0.300781 -2.25 0.269531 -1.921875 0.269531 -1.648438 C 0.269531 -1.261719 0.328125 -0.960938 0.449219 -0.75 C 0.628906 -0.421875 0.988281 -0.210938 1.589844 -0.0898438 C 2.011719 -0.03125 2.789062 0 3.929688 0 L 10.828125 0 C 10.769531 0.539062 10.710938 0.929688 10.648438 1.109375 C 10.621094 1.351562 10.53125 1.53125 10.410156 1.648438 C 10.320312 1.769531 10.140625 1.828125 9.898438 1.890625 C 9.75 1.890625 9.421875 1.921875 8.878906 1.921875 L 3.691406 1.921875 C 2.789062 1.921875 2.128906 1.921875 1.769531 1.980469 C 1.261719 2.011719 0.871094 2.128906 0.570312 2.308594 C 0.210938 2.519531 -0.0898438 2.96875 -0.328125 3.691406 C -0.449219 4.078125 -0.628906 4.890625 -0.898438 6.148438 L 9.960938 6.148438 C 11.578125 6.148438 12.601562 6.089844 13.019531 5.96875 C 13.441406 5.851562 13.738281 5.699219 13.921875 5.460938 C 14.160156 5.160156 14.371094 4.710938 14.488281 4.109375 C 14.578125 3.71875 14.699219 3 14.820312 1.921875 L 15.089844 0 L 15.691406 -4.230469 L 16.589844 -10.679688 C 16.769531 -12 16.859375 -12.871094 16.859375 -13.261719 C 16.859375 -13.378906 16.859375 -13.5 16.828125 -13.558594 C 16.828125 -14.039062 16.679688 -14.371094 16.378906 -14.550781 C 16.140625 -14.730469 15.691406 -14.851562 15.058594 -14.878906 C 14.699219 -14.910156 14.011719 -14.910156 12.929688 -14.910156 L 12.328125 -10.679688 L 11.578125 -5.308594 C 11.519531 -5.070312 11.488281 -4.890625 11.460938 -4.769531 C 11.429688 -4.621094 11.371094 -4.5 11.308594 -4.410156 C 11.25 -4.351562 11.191406 -4.320312 11.070312 -4.289062 C 10.980469 -4.261719 10.710938 -4.230469 10.289062 -4.230469 L 4.828125 -4.230469 L 5.730469 -10.679688 C 5.910156 -12.089844 6.03125 -12.929688 6.03125 -13.171875 L 6.03125 -13.53125 C 6.03125 -13.949219 5.96875 -14.28125 5.789062 -14.460938 C 5.640625 -14.640625 5.371094 -14.761719 4.980469 -14.820312 C 4.679688 -14.878906 4.171875 -14.910156 3.421875 -14.910156 Z M 0.839844 -14.910156 "/></g></g></g><g fill="#ff00ff" fill-opacity="1"><g transform="translate(21.01172, 56.289056)"><g><path d="M 13.53125 -18.421875 L 12.929688 -14.851562 L 5.941406 -14.851562 C 4.859375 -14.851562 4.078125 -14.820312 3.660156 -14.761719 C 3.121094 -14.699219 2.730469 -14.550781 2.488281 -14.308594 C 2.21875 -14.070312 2.011719 -13.589844 1.859375 -12.929688 C 1.769531 -12.570312 1.648438 -11.789062 1.5 -10.648438 C 1.441406 -10.140625 1.320312 -9.148438 1.078125 -7.648438 C 0.871094 -6.179688 0.71875 -5.039062 0.601562 -4.230469 C 0.449219 -3.238281 0.359375 -2.550781 0.328125 -2.191406 C 0.328125 -1.980469 0.300781 -1.800781 0.300781 -1.621094 C 0.300781 -1.261719 0.359375 -0.960938 0.449219 -0.75 C 0.660156 -0.328125 1.230469 -0.0898438 2.128906 -0.03125 C 2.488281 -0.03125 3.179688 0 4.171875 0 L 10.921875 0 C 12.121094 0 12.929688 -0.03125 13.320312 -0.0585938 C 14.101562 -0.148438 14.609375 -0.359375 14.878906 -0.71875 C 15.121094 -1.019531 15.269531 -1.46875 15.390625 -2.101562 C 15.480469 -2.460938 15.601562 -3.179688 15.71875 -4.230469 L 15.871094 -5.339844 L 17.191406 -14.851562 L 17.730469 -19.078125 C 17.789062 -19.320312 17.820312 -19.5 17.820312 -19.589844 C 17.878906 -19.738281 17.941406 -19.859375 18.03125 -19.980469 C 18.121094 -20.101562 18.238281 -20.21875 18.390625 -20.371094 C 18.539062 -20.488281 18.78125 -20.699219 19.109375 -21 L 17.671875 -21 C 17.28125 -21 16.921875 -20.96875 16.589844 -20.941406 C 16.140625 -20.878906 15.75 -20.820312 15.390625 -20.699219 C 15.058594 -20.609375 14.761719 -20.460938 14.519531 -20.28125 C 14.21875 -20.070312 13.980469 -19.769531 13.800781 -19.378906 C 13.679688 -19.109375 13.589844 -18.78125 13.53125 -18.421875 Z M 6.988281 -10.648438 L 12.328125 -10.648438 L 11.609375 -5.339844 C 11.550781 -5.039062 11.519531 -4.828125 11.460938 -4.710938 C 11.429688 -4.589844 11.371094 -4.46875 11.308594 -4.410156 C 11.25 -4.320312 11.101562 -4.261719 10.890625 -4.230469 L 4.859375 -4.230469 L 5.609375 -9.539062 C 5.671875 -9.839844 5.699219 -10.019531 5.699219 -10.109375 C 5.761719 -10.289062 5.820312 -10.410156 5.878906 -10.46875 C 5.941406 -10.53125 6 -10.589844 6.089844 -10.589844 C 6.148438 -10.621094 6.238281 -10.621094 6.359375 -10.621094 C 6.660156 -10.648438 6.871094 -10.648438 6.988281 -10.648438 Z M 6.988281 -10.648438 "/></g></g></g><g fill="#ff00ff" fill-opacity="1"><g transform="translate(38.291702, 56.289056)"><g><path d="M 6.421875 -14.851562 C 5.039062 -14.851562 4.140625 -14.851562 3.71875 -14.789062 C 3.179688 -14.730469 2.761719 -14.550781 2.460938 -14.28125 C 2.191406 -14.011719 1.980469 -13.53125 1.828125 -12.808594 L 1.46875 -10.648438 L 0.570312 -4.230469 C 0.421875 -3.03125 0.328125 -2.25 0.300781 -1.859375 L 0.300781 -1.621094 C 0.300781 -1.230469 0.359375 -0.929688 0.480469 -0.691406 C 0.660156 -0.421875 0.960938 -0.238281 1.378906 -0.121094 C 1.800781 -0.0585938 2.578125 0 3.78125 0 L 15.121094 0 L 15.121094 -0.511719 C 15.121094 -1.378906 15.121094 -2.011719 15.058594 -2.371094 C 15.03125 -3 14.910156 -3.449219 14.671875 -3.691406 C 14.488281 -3.929688 14.160156 -4.078125 13.679688 -4.140625 C 13.351562 -4.199219 12.601562 -4.230469 11.429688 -4.230469 L 4.828125 -4.230469 C 4.890625 -4.53125 4.921875 -4.738281 4.921875 -4.828125 C 4.949219 -5.011719 4.980469 -5.128906 5.039062 -5.191406 C 5.101562 -5.25 5.191406 -5.308594 5.28125 -5.308594 L 12.03125 -5.308594 C 13.078125 -5.308594 13.800781 -5.339844 14.191406 -5.398438 C 14.789062 -5.488281 15.210938 -5.671875 15.480469 -5.910156 C 15.71875 -6.148438 15.929688 -6.570312 16.050781 -7.140625 C 16.171875 -7.558594 16.289062 -8.339844 16.441406 -9.539062 L 16.621094 -10.648438 C 16.738281 -11.609375 16.828125 -12.238281 16.859375 -12.601562 C 16.890625 -12.839844 16.890625 -13.050781 16.890625 -13.230469 C 16.890625 -13.828125 16.769531 -14.25 16.46875 -14.460938 C 16.230469 -14.671875 15.78125 -14.789062 15.121094 -14.820312 C 14.761719 -14.851562 14.039062 -14.851562 12.960938 -14.851562 Z M 6.480469 -10.648438 L 12.328125 -10.648438 C 12.300781 -10.289062 12.269531 -10.078125 12.238281 -9.960938 C 12.238281 -9.839844 12.210938 -9.75 12.148438 -9.691406 C 12.089844 -9.628906 11.96875 -9.570312 11.789062 -9.539062 L 5.578125 -9.539062 C 5.640625 -9.898438 5.671875 -10.109375 5.671875 -10.199219 C 5.730469 -10.351562 5.761719 -10.410156 5.789062 -10.46875 C 5.851562 -10.53125 5.910156 -10.589844 5.96875 -10.621094 C 6.03125 -10.648438 6.210938 -10.648438 6.480469 -10.648438 Z M 6.480469 -10.648438 "/></g></g></g><g fill="#ff00ff" fill-opacity="1"><g transform="translate(55.001689, 56.289056)"><g><path d="M 1.46875 -10.648438 L 1.320312 -9.570312 C 1.140625 -8.371094 1.019531 -7.589844 0.960938 -7.199219 L 0.960938 -6.839844 C 0.960938 -6.359375 1.078125 -6.03125 1.261719 -5.820312 C 1.5 -5.609375 1.890625 -5.460938 2.488281 -5.398438 C 2.851562 -5.371094 3.449219 -5.339844 4.261719 -5.339844 L 11.609375 -5.339844 C 11.578125 -5.070312 11.550781 -4.890625 11.519531 -4.769531 C 11.519531 -4.621094 11.460938 -4.5 11.398438 -4.410156 C 11.339844 -4.351562 11.25 -4.289062 11.128906 -4.261719 C 11.039062 -4.261719 10.800781 -4.230469 10.441406 -4.230469 L 0.570312 -4.230469 C 0.390625 -2.910156 0.300781 -2.070312 0.300781 -1.648438 C 0.300781 -1.199219 0.359375 -0.871094 0.511719 -0.628906 C 0.691406 -0.421875 0.960938 -0.269531 1.320312 -0.148438 C 1.738281 -0.0898438 2.699219 -0.03125 4.261719 -0.03125 L 10.859375 -0.03125 C 12.390625 -0.03125 13.378906 -0.0898438 13.800781 -0.148438 C 14.25 -0.269531 14.578125 -0.449219 14.820312 -0.691406 C 15 -0.929688 15.121094 -1.230469 15.238281 -1.621094 C 15.359375 -2.039062 15.539062 -2.910156 15.71875 -4.230469 L 15.871094 -5.339844 C 16.019531 -6.539062 16.109375 -7.320312 16.109375 -7.679688 L 16.109375 -7.859375 C 16.109375 -8.398438 16.019531 -8.789062 15.808594 -9.03125 C 15.601562 -9.269531 15.179688 -9.449219 14.519531 -9.511719 C 14.160156 -9.570312 13.378906 -9.570312 12.179688 -9.570312 L 5.578125 -9.570312 C 5.640625 -9.898438 5.671875 -10.109375 5.671875 -10.199219 C 5.699219 -10.320312 5.730469 -10.410156 5.789062 -10.46875 C 5.851562 -10.558594 5.96875 -10.621094 6.089844 -10.621094 C 6.210938 -10.648438 6.511719 -10.648438 6.929688 -10.648438 L 12.808594 -10.648438 C 13.769531 -10.648438 14.460938 -10.679688 14.820312 -10.738281 C 15.238281 -10.800781 15.539062 -10.859375 15.78125 -10.980469 C 16.199219 -11.191406 16.5 -11.578125 16.679688 -12.148438 C 16.828125 -12.570312 17.011719 -13.5 17.191406 -14.878906 L 6.058594 -14.878906 C 4.980469 -14.878906 4.230469 -14.878906 3.808594 -14.820312 C 3.269531 -14.761719 2.878906 -14.640625 2.609375 -14.429688 C 2.308594 -14.191406 2.070312 -13.800781 1.921875 -13.199219 C 1.800781 -12.78125 1.648438 -11.941406 1.46875 -10.648438 Z M 1.46875 -10.648438 "/></g></g></g><g fill="#ff00ff" fill-opacity="1"><g transform="translate(72.041677, 56.289056)"><g><path d="M 7.5 -21 C 6.121094 -21 5.191406 -20.96875 4.738281 -20.910156 C 4.199219 -20.820312 3.808594 -20.609375 3.539062 -20.308594 C 3.328125 -20.070312 3.148438 -19.621094 3.03125 -19.019531 C 2.941406 -18.660156 2.820312 -17.910156 2.640625 -16.769531 L 2.550781 -15.960938 L 6.808594 -15.960938 Z M 2.398438 -14.878906 L 0.601562 -2.191406 C 0.570312 -1.890625 0.539062 -1.710938 0.480469 -1.589844 C 0.449219 -1.441406 0.390625 -1.289062 0.269531 -1.140625 C 0.179688 -1.019531 0.03125 -0.871094 -0.210938 -0.628906 C -0.328125 -0.511719 -0.539062 -0.300781 -0.898438 0 L 0.511719 0 C 1.589844 0 2.339844 -0.03125 2.730469 -0.0585938 C 3.390625 -0.121094 3.871094 -0.300781 4.171875 -0.570312 C 4.441406 -0.839844 4.648438 -1.289062 4.769531 -1.921875 C 4.890625 -2.308594 5.011719 -3.058594 5.160156 -4.199219 L 6.660156 -14.878906 Z M 2.398438 -14.878906 "/></g></g></g><g fill="#ff00ff" fill-opacity="1"><g transform="translate(78.941674, 56.289056)"><g><path d="M 1.441406 -10.648438 C 1.320312 -9.628906 1.171875 -8.609375 1.019531 -7.558594 C 0.808594 -6.03125 0.660156 -4.921875 0.539062 -4.230469 C 0.421875 -3.269531 0.359375 -2.609375 0.300781 -2.25 C 0.300781 -2.039062 0.269531 -1.828125 0.269531 -1.648438 C 0.269531 -1.261719 0.328125 -0.960938 0.449219 -0.75 C 0.628906 -0.421875 1.019531 -0.210938 1.621094 -0.0898438 C 2.039062 -0.0585938 2.789062 -0.03125 3.929688 -0.03125 L 10.828125 -0.03125 C 10.769531 0.570312 10.710938 0.960938 10.648438 1.140625 C 10.589844 1.378906 10.53125 1.558594 10.410156 1.679688 C 10.320312 1.769531 10.171875 1.828125 9.960938 1.890625 C 9.78125 1.890625 9.421875 1.921875 8.878906 1.921875 L 3.691406 1.921875 C 2.789062 1.921875 2.128906 1.921875 1.738281 1.980469 C 1.230469 2.039062 0.839844 2.128906 0.570312 2.308594 C 0.210938 2.519531 -0.0898438 2.96875 -0.300781 3.628906 C -0.421875 4.019531 -0.628906 4.859375 -0.898438 6.148438 L 9.960938 6.148438 C 11.398438 6.148438 12.328125 6.089844 12.75 6.03125 C 13.289062 5.941406 13.648438 5.761719 13.890625 5.488281 C 14.160156 5.191406 14.371094 4.738281 14.488281 4.109375 C 14.578125 3.691406 14.699219 2.96875 14.820312 1.921875 L 15.089844 -0.03125 L 15.691406 -4.230469 L 16.050781 -6.898438 L 16.589844 -10.648438 C 16.679688 -11.429688 16.738281 -12 16.738281 -12.300781 L 16.738281 -13.46875 C 16.710938 -13.921875 16.589844 -14.21875 16.351562 -14.398438 C 16.230469 -14.550781 16.019531 -14.640625 15.75 -14.699219 C 15.570312 -14.761719 15.300781 -14.820312 14.96875 -14.820312 C 14.640625 -14.878906 13.949219 -14.878906 12.898438 -14.878906 L 6.300781 -14.878906 C 5.101562 -14.878906 4.289062 -14.878906 3.871094 -14.820312 C 3.210938 -14.761719 2.761719 -14.578125 2.460938 -14.308594 C 2.21875 -14.070312 2.011719 -13.621094 1.828125 -12.988281 C 1.769531 -12.628906 1.621094 -11.851562 1.441406 -10.648438 Z M 6.78125 -10.648438 L 12.328125 -10.648438 L 11.578125 -5.308594 C 11.519531 -4.980469 11.488281 -4.738281 11.429688 -4.621094 C 11.398438 -4.5 11.371094 -4.441406 11.28125 -4.378906 C 11.21875 -4.320312 11.101562 -4.289062 10.949219 -4.261719 C 10.828125 -4.261719 10.621094 -4.230469 10.289062 -4.230469 L 4.828125 -4.230469 L 5.191406 -6.988281 L 5.550781 -9.539062 C 5.609375 -9.839844 5.640625 -10.019531 5.640625 -10.109375 C 5.699219 -10.289062 5.730469 -10.410156 5.789062 -10.46875 C 5.851562 -10.558594 5.96875 -10.621094 6.089844 -10.621094 C 6.210938 -10.648438 6.421875 -10.648438 6.78125 -10.648438 Z M 6.78125 -10.648438 "/></g></g></g><g fill="#ff00ff" fill-opacity="1"><g transform="translate(95.981662, 56.289056)"><g><path d="M 1.800781 -10.621094 L 1.648438 -9.539062 L 1.050781 -5.308594 L 0.898438 -4.199219 L 0.601562 -2.101562 C 0.570312 -1.800781 0.539062 -1.589844 0.480469 -1.46875 C 0.449219 -1.351562 0.390625 -1.261719 0.328125 -1.140625 C 0.238281 -1.019531 0.0898438 -0.871094 -0.148438 -0.660156 C -0.269531 -0.539062 -0.511719 -0.328125 -0.898438 0 L 0.480469 0 C 1.648438 0 2.429688 -0.03125 2.851562 -0.0585938 C 3.511719 -0.148438 3.960938 -0.328125 4.230469 -0.628906 C 4.46875 -0.929688 4.679688 -1.378906 4.800781 -2.011719 C 4.890625 -2.398438 5.011719 -3.121094 5.160156 -4.199219 L 5.308594 -5.308594 L 5.910156 -9.539062 C 5.96875 -9.871094 6 -10.078125 6 -10.171875 C 6.058594 -10.351562 6.148438 -10.46875 6.210938 -10.53125 C 6.269531 -10.589844 6.390625 -10.621094 6.511719 -10.621094 C 6.570312 -10.648438 6.660156 -10.648438 6.78125 -10.648438 C 6.898438 -10.648438 7.019531 -10.648438 7.171875 -10.621094 L 12.660156 -10.621094 L 12.511719 -9.539062 L 11.910156 -5.308594 L 11.761719 -4.199219 L 11.160156 0 C 12.660156 0 13.621094 -0.0585938 14.039062 -0.121094 C 14.550781 -0.238281 14.910156 -0.421875 15.148438 -0.691406 C 15.328125 -0.929688 15.480469 -1.261719 15.601562 -1.738281 C 15.71875 -2.128906 15.839844 -2.941406 16.019531 -4.199219 L 16.171875 -5.308594 L 16.769531 -9.539062 L 16.921875 -10.621094 C 17.101562 -11.941406 17.191406 -12.808594 17.191406 -13.199219 C 17.191406 -13.859375 17.039062 -14.28125 16.738281 -14.488281 C 16.5 -14.671875 16.050781 -14.789062 15.421875 -14.820312 C 15.121094 -14.851562 14.699219 -14.851562 14.160156 -14.851562 L 5.730469 -14.851562 C 4.859375 -14.851562 4.230469 -14.820312 3.839844 -14.761719 C 3.300781 -14.699219 2.878906 -14.488281 2.640625 -14.160156 C 2.429688 -13.921875 2.25 -13.46875 2.128906 -12.871094 C 2.070312 -12.511719 1.949219 -11.761719 1.800781 -10.621094 Z M 1.800781 -10.621094 "/></g></g></g><g fill="#ff00ff" fill-opacity="1"><g transform="translate(113.441649, 56.289056)"><g><path d="M 1.46875 -10.648438 L 1.320312 -9.570312 C 1.140625 -8.371094 1.019531 -7.589844 0.960938 -7.199219 L 0.960938 -6.839844 C 0.960938 -6.359375 1.078125 -6.03125 1.261719 -5.820312 C 1.5 -5.609375 1.890625 -5.460938 2.488281 -5.398438 C 2.851562 -5.371094 3.449219 -5.339844 4.261719 -5.339844 L 11.609375 -5.339844 C 11.578125 -5.070312 11.550781 -4.890625 11.519531 -4.769531 C 11.519531 -4.621094 11.460938 -4.5 11.398438 -4.410156 C 11.339844 -4.351562 11.25 -4.289062 11.128906 -4.261719 C 11.039062 -4.261719 10.800781 -4.230469 10.441406 -4.230469 L 0.570312 -4.230469 C 0.390625 -2.910156 0.300781 -2.070312 0.300781 -1.648438 C 0.300781 -1.199219 0.359375 -0.871094 0.511719 -0.628906 C 0.691406 -0.421875 0.960938 -0.269531 1.320312 -0.148438 C 1.738281 -0.0898438 2.699219 -0.03125 4.261719 -0.03125 L 10.859375 -0.03125 C 12.390625 -0.03125 13.378906 -0.0898438 13.800781 -0.148438 C 14.25 -0.269531 14.578125 -0.449219 14.820312 -0.691406 C 15 -0.929688 15.121094 -1.230469 15.238281 -1.621094 C 15.359375 -2.039062 15.539062 -2.910156 15.71875 -4.230469 L 15.871094 -5.339844 C 16.019531 -6.539062 16.109375 -7.320312 16.109375 -7.679688 L 16.109375 -7.859375 C 16.109375 -8.398438 16.019531 -8.789062 15.808594 -9.03125 C 15.601562 -9.269531 15.179688 -9.449219 14.519531 -9.511719 C 14.160156 -9.570312 13.378906 -9.570312 12.179688 -9.570312 L 5.578125 -9.570312 C 5.640625 -9.898438 5.671875 -10.109375 5.671875 -10.199219 C 5.699219 -10.320312 5.730469 -10.410156 5.789062 -10.46875 C 5.851562 -10.558594 5.96875 -10.621094 6.089844 -10.621094 C 6.210938 -10.648438 6.511719 -10.648438 6.929688 -10.648438 L 12.808594 -10.648438 C 13.769531 -10.648438 14.460938 -10.679688 14.820312 -10.738281 C 15.238281 -10.800781 15.539062 -10.859375 15.78125 -10.980469 C 16.199219 -11.191406 16.5 -11.578125 16.679688 -12.148438 C 16.828125 -12.570312 17.011719 -13.5 17.191406 -14.878906 L 6.058594 -14.878906 C 4.980469 -14.878906 4.230469 -14.878906 3.808594 -14.820312 C 3.269531 -14.761719 2.878906 -14.640625 2.609375 -14.429688 C 2.308594 -14.191406 2.070312 -13.800781 1.921875 -13.199219 C 1.800781 -12.78125 1.648438 -11.941406 1.46875 -10.648438 Z M 1.46875 -10.648438 "/></g></g></g><g fill="#00ffff" fill-opacity="1"><g transform="translate(19.51172, 56.289056)"><g><path d="M 13.53125 -18.421875 L 12.929688 -14.851562 L 5.941406 -14.851562 C 4.859375 -14.851562 4.078125 -14.820312 3.660156 -14.761719 C 3.121094 -14.699219 2.730469 -14.550781 2.488281 -14.308594 C 2.21875 -14.070312 2.011719 -13.589844 1.859375 -12.929688 C 1.769531 -12.570312 1.648438 -11.789062 1.5 -10.648438 C 1.441406 -10.140625 1.320312 -9.148438 1.078125 -7.648438 C 0.871094 -6.179688 0.71875 -5.039062 0.601562 -4.230469 C 0.449219 -3.238281 0.359375 -2.550781 0.328125 -2.191406 C 0.328125 -1.980469 0.300781 -1.800781 0.300781 -1.621094 C 0.300781 -1.261719 0.359375 -0.960938 0.449219 -0.75 C 0.660156 -0.328125 1.230469 -0.0898438 2.128906 -0.03125 C 2.488281 -0.03125 3.179688 0 4.171875 0 L 10.921875 0 C 12.121094 0 12.929688 -0.03125 13.320312 -0.0585938 C 14.101562 -0.148438 14.609375 -0.359375 14.878906 -0.71875 C 15.121094 -1.019531 15.269531 -1.46875 15.390625 -2.101562 C 15.480469 -2.460938 15.601562 -3.179688 15.71875 -4.230469 L 15.871094 -5.339844 L 17.191406 -14.851562 L 17.730469 -19.078125 C 17.789062 -19.320312 17.820312 -19.5 17.820312 -19.589844 C 17.878906 -19.738281 17.941406 -19.859375 18.03125 -19.980469 C 18.121094 -20.101562 18.238281 -20.21875 18.390625 -20.371094 C 18.539062 -20.488281 18.78125 -20.699219 19.109375 -21 L 17.671875 -21 C 17.28125 -21 16.921875 -20.96875 16.589844 -20.941406 C 16.140625 -20.878906 15.75 -20.820312 15.390625 -20.699219 C 15.058594 -20.609375 14.761719 -20.460938 14.519531 -20.28125 C 14.21875 -20.070312 13.980469 -19.769531 13.800781 -19.378906 C 13.679688 -19.109375 13.589844 -18.78125 13.53125 -18.421875 Z M 6.988281 -10.648438 L 12.328125 -10.648438 L 11.609375 -5.339844 C 11.550781 -5.039062 11.519531 -4.828125 11.460938 -4.710938 C 11.429688 -4.589844 11.371094 -4.46875 11.308594 -4.410156 C 11.25 -4.320312 11.101562 -4.261719 10.890625 -4.230469 L 4.859375 -4.230469 L 5.609375 -9.539062 C 5.671875 -9.839844 5.699219 -10.019531 5.699219 -10.109375 C 5.761719 -10.289062 5.820312 -10.410156 5.878906 -10.46875 C 5.941406 -10.53125 6 -10.589844 6.089844 -10.589844 C 6.148438 -10.621094 6.238281 -10.621094 6.359375 -10.621094 C 6.660156 -10.648438 6.871094 -10.648438 6.988281 -10.648438 Z M 6.988281 -10.648438 "/></g></g></g><g fill="#00ffff" fill-opacity="1"><g transform="translate(36.791702, 56.289056)"><g><path d="M 6.421875 -14.851562 C 5.039062 -14.851562 4.140625 -14.851562 3.71875 -14.789062 C 3.179688 -14.730469 2.761719 -14.550781 2.460938 -14.28125 C 2.191406 -14.011719 1.980469 -13.53125 1.828125 -12.808594 L 1.46875 -10.648438 L 0.570312 -4.230469 C 0.421875 -3.03125 0.328125 -2.25 0.300781 -1.859375 L 0.300781 -1.621094 C 0.300781 -1.230469 0.359375 -0.929688 0.480469 -0.691406 C 0.660156 -0.421875 0.960938 -0.238281 1.378906 -0.121094 C 1.800781 -0.0585938 2.578125 0 3.78125 0 L 15.121094 0 L 15.121094 -0.511719 C 15.121094 -1.378906 15.121094 -2.011719 15.058594 -2.371094 C 15.03125 -3 14.910156 -3.449219 14.671875 -3.691406 C 14.488281 -3.929688 14.160156 -4.078125 13.679688 -4.140625 C 13.351562 -4.199219 12.601562 -4.230469 11.429688 -4.230469 L 4.828125 -4.230469 C 4.890625 -4.53125 4.921875 -4.738281 4.921875 -4.828125 C 4.949219 -5.011719 4.980469 -5.128906 5.039062 -5.191406 C 5.101562 -5.25 5.191406 -5.308594 5.28125 -5.308594 L 12.03125 -5.308594 C 13.078125 -5.308594 13.800781 -5.339844 14.191406 -5.398438 C 14.789062 -5.488281 15.210938 -5.671875 15.480469 -5.910156 C 15.71875 -6.148438 15.929688 -6.570312 16.050781 -7.140625 C 16.171875 -7.558594 16.289062 -8.339844 16.441406 -9.539062 L 16.621094 -10.648438 C 16.738281 -11.609375 16.828125 -12.238281 16.859375 -12.601562 C 16.890625 -12.839844 16.890625 -13.050781 16.890625 -13.230469 C 16.890625 -13.828125 16.769531 -14.25 16.46875 -14.460938 C 16.230469 -14.671875 15.78125 -14.789062 15.121094 -14.820312 C 14.761719 -14.851562 14.039062 -14.851562 12.960938 -14.851562 Z M 6.480469 -10.648438 L 12.328125 -10.648438 C 12.300781 -10.289062 12.269531 -10.078125 12.238281 -9.960938 C 12.238281 -9.839844 12.210938 -9.75 12.148438 -9.691406 C 12.089844 -9.628906 11.96875 -9.570312 11.789062 -9.539062 L 5.578125 -9.539062 C 5.640625 -9.898438 5.671875 -10.109375 5.671875 -10.199219 C 5.730469 -10.351562 5.761719 -10.410156 5.789062 -10.46875 C 5.851562 -10.53125 5.910156 -10.589844 5.96875 -10.621094 C 6.03125 -10.648438 6.210938 -10.648438 6.480469 -10.648438 Z M 6.480469 -10.648438 "/></g></g></g><g fill="#00ffff" fill-opacity="1"><g transform="translate(53.501689, 56.289056)"><g><path d="M 1.46875 -10.648438 L 1.320312 -9.570312 C 1.140625 -8.371094 1.019531 -7.589844 0.960938 -7.199219 L 0.960938 -6.839844 C 0.960938 -6.359375 1.078125 -6.03125 1.261719 -5.820312 C 1.5 -5.609375 1.890625 -5.460938 2.488281 -5.398438 C 2.851562 -5.371094 3.449219 -5.339844 4.261719 -5.339844 L 11.609375 -5.339844 C 11.578125 -5.070312 11.550781 -4.890625 11.519531 -4.769531 C 11.519531 -4.621094 11.460938 -4.5 11.398438 -4.410156 C 11.339844 -4.351562 11.25 -4.289062 11.128906 -4.261719 C 11.039062 -4.261719 10.800781 -4.230469 10.441406 -4.230469 L 0.570312 -4.230469 C 0.390625 -2.910156 0.300781 -2.070312 0.300781 -1.648438 C 0.300781 -1.199219 0.359375 -0.871094 0.511719 -0.628906 C 0.691406 -0.421875 0.960938 -0.269531 1.320312 -0.148438 C 1.738281 -0.0898438 2.699219 -0.03125 4.261719 -0.03125 L 10.859375 -0.03125 C 12.390625 -0.03125 13.378906 -0.0898438 13.800781 -0.148438 C 14.25 -0.269531 14.578125 -0.449219 14.820312 -0.691406 C 15 -0.929688 15.121094 -1.230469 15.238281 -1.621094 C 15.359375 -2.039062 15.539062 -2.910156 15.71875 -4.230469 L 15.871094 -5.339844 C 16.019531 -6.539062 16.109375 -7.320312 16.109375 -7.679688 L 16.109375 -7.859375 C 16.109375 -8.398438 16.019531 -8.789062 15.808594 -9.03125 C 15.601562 -9.269531 15.179688 -9.449219 14.519531 -9.511719 C 14.160156 -9.570312 13.378906 -9.570312 12.179688 -9.570312 L 5.578125 -9.570312 C 5.640625 -9.898438 5.671875 -10.109375 5.671875 -10.199219 C 5.699219 -10.320312 5.730469 -10.410156 5.789062 -10.46875 C 5.851562 -10.558594 5.96875 -10.621094 6.089844 -10.621094 C 6.210938 -10.648438 6.511719 -10.648438 6.929688 -10.648438 L 12.808594 -10.648438 C 13.769531 -10.648438 14.460938 -10.679688 14.820312 -10.738281 C 15.238281 -10.800781 15.539062 -10.859375 15.78125 -10.980469 C 16.199219 -11.191406 16.5 -11.578125 16.679688 -12.148438 C 16.828125 -12.570312 17.011719 -13.5 17.191406 -14.878906 L 6.058594 -14.878906 C 4.980469 -14.878906 4.230469 -14.878906 3.808594 -14.820312 C 3.269531 -14.761719 2.878906 -14.640625 2.609375 -14.429688 C 2.308594 -14.191406 2.070312 -13.800781 1.921875 -13.199219 C 1.800781 -12.78125 1.648438 -11.941406 1.46875 -10.648438 Z M 1.46875 -10.648438 "/></g></g></g><g fill="#00ffff" fill-opacity="1"><g transform="translate(70.541677, 56.289056)"><g><path d="M 7.5 -21 C 6.121094 -21 5.191406 -20.96875 4.738281 -20.910156 C 4.199219 -20.820312 3.808594 -20.609375 3.539062 -20.308594 C 3.328125 -20.070312 3.148438 -19.621094 3.03125 -19.019531 C 2.941406 -18.660156 2.820312 -17.910156 2.640625 -16.769531 L 2.550781 -15.960938 L 6.808594 -15.960938 Z M 2.398438 -14.878906 L 0.601562 -2.191406 C 0.570312 -1.890625 0.539062 -1.710938 0.480469 -1.589844 C 0.449219 -1.441406 0.390625 -1.289062 0.269531 -1.140625 C 0.179688 -1.019531 0.03125 -0.871094 -0.210938 -0.628906 C -0.328125 -0.511719 -0.539062 -0.300781 -0.898438 0 L 0.511719 0 C 1.589844 0 2.339844 -0.03125 2.730469 -0.0585938 C 3.390625 -0.121094 3.871094 -0.300781 4.171875 -0.570312 C 4.441406 -0.839844 4.648438 -1.289062 4.769531 -1.921875 C 4.890625 -2.308594 5.011719 -3.058594 5.160156 -4.199219 L 6.660156 -14.878906 Z M 2.398438 -14.878906 "/></g></g></g><g fill="#00ffff" fill-opacity="1"><g transform="translate(77.441674, 56.289056)"><g><path d="M 1.441406 -10.648438 C 1.320312 -9.628906 1.171875 -8.609375 1.019531 -7.558594 C 0.808594 -6.03125 0.660156 -4.921875 0.539062 -4.230469 C 0.421875 -3.269531 0.359375 -2.609375 0.300781 -2.25 C 0.300781 -2.039062 0.269531 -1.828125 0.269531 -1.648438 C 0.269531 -1.261719 0.328125 -0.960938 0.449219 -0.75 C 0.628906 -0.421875 1.019531 -0.210938 1.621094 -0.0898438 C 2.039062 -0.0585938 2.789062 -0.03125 3.929688 -0.03125 L 10.828125 -0.03125 C 10.769531 0.570312 10.710938 0.960938 10.648438 1.140625 C 10.589844 1.378906 10.53125 1.558594 10.410156 1.679688 C 10.320312 1.769531 10.171875 1.828125 9.960938 1.890625 C 9.78125 1.890625 9.421875 1.921875 8.878906 1.921875 L 3.691406 1.921875 C 2.789062 1.921875 2.128906 1.921875 1.738281 1.980469 C 1.230469 2.039062 0.839844 2.128906 0.570312 2.308594 C 0.210938 2.519531 -0.0898438 2.96875 -0.300781 3.628906 C -0.421875 4.019531 -0.628906 4.859375 -0.898438 6.148438 L 9.960938 6.148438 C 11.398438 6.148438 12.328125 6.089844 12.75 6.03125 C 13.289062 5.941406 13.648438 5.761719 13.890625 5.488281 C 14.160156 5.191406 14.371094 4.738281 14.488281 4.109375 C 14.578125 3.691406 14.699219 2.96875 14.820312 1.921875 L 15.089844 -0.03125 L 15.691406 -4.230469 L 16.050781 -6.898438 L 16.589844 -10.648438 C 16.679688 -11.429688 16.738281 -12 16.738281 -12.300781 L 16.738281 -13.46875 C 16.710938 -13.921875 16.589844 -14.21875 16.351562 -14.398438 C 16.230469 -14.550781 16.019531 -14.640625 15.75 -14.699219 C 15.570312 -14.761719 15.300781 -14.820312 14.96875 -14.820312 C 14.640625 -14.878906 13.949219 -14.878906 12.898438 -14.878906 L 6.300781 -14.878906 C 5.101562 -14.878906 4.289062 -14.878906 3.871094 -14.820312 C 3.210938 -14.761719 2.761719 -14.578125 2.460938 -14.308594 C 2.21875 -14.070312 2.011719 -13.621094 1.828125 -12.988281 C 1.769531 -12.628906 1.621094 -11.851562 1.441406 -10.648438 Z M 6.78125 -10.648438 L 12.328125 -10.648438 L 11.578125 -5.308594 C 11.519531 -4.980469 11.488281 -4.738281 11.429688 -4.621094 C 11.398438 -4.5 11.371094 -4.441406 11.28125 -4.378906 C 11.21875 -4.320312 11.101562 -4.289062 10.949219 -4.261719 C 10.828125 -4.261719 10.621094 -4.230469 10.289062 -4.230469 L 4.828125 -4.230469 L 5.191406 -6.988281 L 5.550781 -9.539062 C 5.609375 -9.839844 5.640625 -10.019531 5.640625 -10.109375 C 5.699219 -10.289062 5.730469 -10.410156 5.789062 -10.46875 C 5.851562 -10.558594 5.96875 -10.621094 6.089844 -10.621094 C 6.210938 -10.648438 6.421875 -10.648438 6.78125 -10.648438 Z M 6.78125 -10.648438 "/></g></g></g><g fill="#00ffff" fill-opacity="1"><g transform="translate(94.481662, 56.289056)"><g><path d="M 1.800781 -10.621094 L 1.648438 -9.539062 L 1.050781 -5.308594 L 0.898438 -4.199219 L 0.601562 -2.101562 C 0.570312 -1.800781 0.539062 -1.589844 0.480469 -1.46875 C 0.449219 -1.351562 0.390625 -1.261719 0.328125 -1.140625 C 0.238281 -1.019531 0.0898438 -0.871094 -0.148438 -0.660156 C -0.269531 -0.539062 -0.511719 -0.328125 -0.898438 0 L 0.480469 0 C 1.648438 0 2.429688 -0.03125 2.851562 -0.0585938 C 3.511719 -0.148438 3.960938 -0.328125 4.230469 -0.628906 C 4.46875 -0.929688 4.679688 -1.378906 4.800781 -2.011719 C 4.890625 -2.398438 5.011719 -3.121094 5.160156 -4.199219 L 5.308594 -5.308594 L 5.910156 -9.539062 C 5.96875 -9.871094 6 -10.078125 6 -10.171875 C 6.058594 -10.351562 6.148438 -10.46875 6.210938 -10.53125 C 6.269531 -10.589844 6.390625 -10.621094 6.511719 -10.621094 C 6.570312 -10.648438 6.660156 -10.648438 6.78125 -10.648438 C 6.898438 -10.648438 7.019531 -10.648438 7.171875 -10.621094 L 12.660156 -10.621094 L 12.511719 -9.539062 L 11.910156 -5.308594 L 11.761719 -4.199219 L 11.160156 0 C 12.660156 0 13.621094 -0.0585938 14.039062 -0.121094 C 14.550781 -0.238281 14.910156 -0.421875 15.148438 -0.691406 C 15.328125 -0.929688 15.480469 -1.261719 15.601562 -1.738281 C 15.71875 -2.128906 15.839844 -2.941406 16.019531 -4.199219 L 16.171875 -5.308594 L 16.769531 -9.539062 L 16.921875 -10.621094 C 17.101562 -11.941406 17.191406 -12.808594 17.191406 -13.199219 C 17.191406 -13.859375 17.039062 -14.28125 16.738281 -14.488281 C 16.5 -14.671875 16.050781 -14.789062 15.421875 -14.820312 C 15.121094 -14.851562 14.699219 -14.851562 14.160156 -14.851562 L 5.730469 -14.851562 C 4.859375 -14.851562 4.230469 -14.820312 3.839844 -14.761719 C 3.300781 -14.699219 2.878906 -14.488281 2.640625 -14.160156 C 2.429688 -13.921875 2.25 -13.46875 2.128906 -12.871094 C 2.070312 -12.511719 1.949219 -11.761719 1.800781 -10.621094 Z M 1.800781 -10.621094 "/></g></g></g><g fill="#00ffff" fill-opacity="1"><g transform="translate(111.941649, 56.289056)"><g><path d="M 1.46875 -10.648438 L 1.320312 -9.570312 C 1.140625 -8.371094 1.019531 -7.589844 0.960938 -7.199219 L 0.960938 -6.839844 C 0.960938 -6.359375 1.078125 -6.03125 1.261719 -5.820312 C 1.5 -5.609375 1.890625 -5.460938 2.488281 -5.398438 C 2.851562 -5.371094 3.449219 -5.339844 4.261719 -5.339844 L 11.609375 -5.339844 C 11.578125 -5.070312 11.550781 -4.890625 11.519531 -4.769531 C 11.519531 -4.621094 11.460938 -4.5 11.398438 -4.410156 C 11.339844 -4.351562 11.25 -4.289062 11.128906 -4.261719 C 11.039062 -4.261719 10.800781 -4.230469 10.441406 -4.230469 L 0.570312 -4.230469 C 0.390625 -2.910156 0.300781 -2.070312 0.300781 -1.648438 C 0.300781 -1.199219 0.359375 -0.871094 0.511719 -0.628906 C 0.691406 -0.421875 0.960938 -0.269531 1.320312 -0.148438 C 1.738281 -0.0898438 2.699219 -0.03125 4.261719 -0.03125 L 10.859375 -0.03125 C 12.390625 -0.03125 13.378906 -0.0898438 13.800781 -0.148438 C 14.25 -0.269531 14.578125 -0.449219 14.820312 -0.691406 C 15 -0.929688 15.121094 -1.230469 15.238281 -1.621094 C 15.359375 -2.039062 15.539062 -2.910156 15.71875 -4.230469 L 15.871094 -5.339844 C 16.019531 -6.539062 16.109375 -7.320312 16.109375 -7.679688 L 16.109375 -7.859375 C 16.109375 -8.398438 16.019531 -8.789062 15.808594 -9.03125 C 15.601562 -9.269531 15.179688 -9.449219 14.519531 -9.511719 C 14.160156 -9.570312 13.378906 -9.570312 12.179688 -9.570312 L 5.578125 -9.570312 C 5.640625 -9.898438 5.671875 -10.109375 5.671875 -10.199219 C 5.699219 -10.320312 5.730469 -10.410156 5.789062 -10.46875 C 5.851562 -10.558594 5.96875 -10.621094 6.089844 -10.621094 C 6.210938 -10.648438 6.511719 -10.648438 6.929688 -10.648438 L 12.808594 -10.648438 C 13.769531 -10.648438 14.460938 -10.679688 14.820312 -10.738281 C 15.238281 -10.800781 15.539062 -10.859375 15.78125 -10.980469 C 16.199219 -11.191406 16.5 -11.578125 16.679688 -12.148438 C 16.828125 -12.570312 17.011719 -13.5 17.191406 -14.878906 L 6.058594 -14.878906 C 4.980469 -14.878906 4.230469 -14.878906 3.808594 -14.820312 C 3.269531 -14.761719 2.878906 -14.640625 2.609375 -14.429688 C 2.308594 -14.191406 2.070312 -13.800781 1.921875 -13.199219 C 1.800781 -12.78125 1.648438 -11.941406 1.46875 -10.648438 Z M 1.46875 -10.648438 "/></g></g></g><g fill="#0383d0" fill-opacity="1"><g transform="translate(20.26172, 56.289056)"><g><path d="M 13.53125 -18.421875 L 12.929688 -14.851562 L 5.941406 -14.851562 C 4.859375 -14.851562 4.078125 -14.820312 3.660156 -14.761719 C 3.121094 -14.699219 2.730469 -14.550781 2.488281 -14.308594 C 2.21875 -14.070312 2.011719 -13.589844 1.859375 -12.929688 C 1.769531 -12.570312 1.648438 -11.789062 1.5 -10.648438 C 1.441406 -10.140625 1.320312 -9.148438 1.078125 -7.648438 C 0.871094 -6.179688 0.71875 -5.039062 0.601562 -4.230469 C 0.449219 -3.238281 0.359375 -2.550781 0.328125 -2.191406 C 0.328125 -1.980469 0.300781 -1.800781 0.300781 -1.621094 C 0.300781 -1.261719 0.359375 -0.960938 0.449219 -0.75 C 0.660156 -0.328125 1.230469 -0.0898438 2.128906 -0.03125 C 2.488281 -0.03125 3.179688 0 4.171875 0 L 10.921875 0 C 12.121094 0 12.929688 -0.03125 13.320312 -0.0585938 C 14.101562 -0.148438 14.609375 -0.359375 14.878906 -0.71875 C 15.121094 -1.019531 15.269531 -1.46875 15.390625 -2.101562 C 15.480469 -2.460938 15.601562 -3.179688 15.71875 -4.230469 L 15.871094 -5.339844 L 17.191406 -14.851562 L 17.730469 -19.078125 C 17.789062 -19.320312 17.820312 -19.5 17.820312 -19.589844 C 17.878906 -19.738281 17.941406 -19.859375 18.03125 -19.980469 C 18.121094 -20.101562 18.238281 -20.21875 18.390625 -20.371094 C 18.539062 -20.488281 18.78125 -20.699219 19.109375 -21 L 17.671875 -21 C 17.28125 -21 16.921875 -20.96875 16.589844 -20.941406 C 16.140625 -20.878906 15.75 -20.820312 15.390625 -20.699219 C 15.058594 -20.609375 14.761719 -20.460938 14.519531 -20.28125 C 14.21875 -20.070312 13.980469 -19.769531 13.800781 -19.378906 C 13.679688 -19.109375 13.589844 -18.78125 13.53125 -18.421875 Z M 6.988281 -10.648438 L 12.328125 -10.648438 L 11.609375 -5.339844 C 11.550781 -5.039062 11.519531 -4.828125 11.460938 -4.710938 C 11.429688 -4.589844 11.371094 -4.46875 11.308594 -4.410156 C 11.25 -4.320312 11.101562 -4.261719 10.890625 -4.230469 L 4.859375 -4.230469 L 5.609375 -9.539062 C 5.671875 -9.839844 5.699219 -10.019531 5.699219 -10.109375 C 5.761719 -10.289062 5.820312 -10.410156 5.878906 -10.46875 C 5.941406 -10.53125 6 -10.589844 6.089844 -10.589844 C 6.148438 -10.621094 6.238281 -10.621094 6.359375 -10.621094 C 6.660156 -10.648438 6.871094 -10.648438 6.988281 -10.648438 Z M 6.988281 -10.648438 "/></g></g></g><g fill="#0383d0" fill-opacity="1"><g transform="translate(37.541702, 56.289056)"><g><path d="M 6.421875 -14.851562 C 5.039062 -14.851562 4.140625 -14.851562 3.71875 -14.789062 C 3.179688 -14.730469 2.761719 -14.550781 2.460938 -14.28125 C 2.191406 -14.011719 1.980469 -13.53125 1.828125 -12.808594 L 1.46875 -10.648438 L 0.570312 -4.230469 C 0.421875 -3.03125 0.328125 -2.25 0.300781 -1.859375 L 0.300781 -1.621094 C 0.300781 -1.230469 0.359375 -0.929688 0.480469 -0.691406 C 0.660156 -0.421875 0.960938 -0.238281 1.378906 -0.121094 C 1.800781 -0.0585938 2.578125 0 3.78125 0 L 15.121094 0 L 15.121094 -0.511719 C 15.121094 -1.378906 15.121094 -2.011719 15.058594 -2.371094 C 15.03125 -3 14.910156 -3.449219 14.671875 -3.691406 C 14.488281 -3.929688 14.160156 -4.078125 13.679688 -4.140625 C 13.351562 -4.199219 12.601562 -4.230469 11.429688 -4.230469 L 4.828125 -4.230469 C 4.890625 -4.53125 4.921875 -4.738281 4.921875 -4.828125 C 4.949219 -5.011719 4.980469 -5.128906 5.039062 -5.191406 C 5.101562 -5.25 5.191406 -5.308594 5.28125 -5.308594 L 12.03125 -5.308594 C 13.078125 -5.308594 13.800781 -5.339844 14.191406 -5.398438 C 14.789062 -5.488281 15.210938 -5.671875 15.480469 -5.910156 C 15.71875 -6.148438 15.929688 -6.570312 16.050781 -7.140625 C 16.171875 -7.558594 16.289062 -8.339844 16.441406 -9.539062 L 16.621094 -10.648438 C 16.738281 -11.609375 16.828125 -12.238281 16.859375 -12.601562 C 16.890625 -12.839844 16.890625 -13.050781 16.890625 -13.230469 C 16.890625 -13.828125 16.769531 -14.25 16.46875 -14.460938 C 16.230469 -14.671875 15.78125 -14.789062 15.121094 -14.820312 C 14.761719 -14.851562 14.039062 -14.851562 12.960938 -14.851562 Z M 6.480469 -10.648438 L 12.328125 -10.648438 C 12.300781 -10.289062 12.269531 -10.078125 12.238281 -9.960938 C 12.238281 -9.839844 12.210938 -9.75 12.148438 -9.691406 C 12.089844 -9.628906 11.96875 -9.570312 11.789062 -9.539062 L 5.578125 -9.539062 C 5.640625 -9.898438 5.671875 -10.109375 5.671875 -10.199219 C 5.730469 -10.351562 5.761719 -10.410156 5.789062 -10.46875 C 5.851562 -10.53125 5.910156 -10.589844 5.96875 -10.621094 C 6.03125 -10.648438 6.210938 -10.648438 6.480469 -10.648438 Z M 6.480469 -10.648438 "/></g></g></g><g fill="#0383d0" fill-opacity="1"><g transform="translate(54.251689, 56.289056)"><g><path d="M 1.46875 -10.648438 L 1.320312 -9.570312 C 1.140625 -8.371094 1.019531 -7.589844 0.960938 -7.199219 L 0.960938 -6.839844 C 0.960938 -6.359375 1.078125 -6.03125 1.261719 -5.820312 C 1.5 -5.609375 1.890625 -5.460938 2.488281 -5.398438 C 2.851562 -5.371094 3.449219 -5.339844 4.261719 -5.339844 L 11.609375 -5.339844 C 11.578125 -5.070312 11.550781 -4.890625 11.519531 -4.769531 C 11.519531 -4.621094 11.460938 -4.5 11.398438 -4.410156 C 11.339844 -4.351562 11.25 -4.289062 11.128906 -4.261719 C 11.039062 -4.261719 10.800781 -4.230469 10.441406 -4.230469 L 0.570312 -4.230469 C 0.390625 -2.910156 0.300781 -2.070312 0.300781 -1.648438 C 0.300781 -1.199219 0.359375 -0.871094 0.511719 -0.628906 C 0.691406 -0.421875 0.960938 -0.269531 1.320312 -0.148438 C 1.738281 -0.0898438 2.699219 -0.03125 4.261719 -0.03125 L 10.859375 -0.03125 C 12.390625 -0.03125 13.378906 -0.0898438 13.800781 -0.148438 C 14.25 -0.269531 14.578125 -0.449219 14.820312 -0.691406 C 15 -0.929688 15.121094 -1.230469 15.238281 -1.621094 C 15.359375 -2.039062 15.539062 -2.910156 15.71875 -4.230469 L 15.871094 -5.339844 C 16.019531 -6.539062 16.109375 -7.320312 16.109375 -7.679688 L 16.109375 -7.859375 C 16.109375 -8.398438 16.019531 -8.789062 15.808594 -9.03125 C 15.601562 -9.269531 15.179688 -9.449219 14.519531 -9.511719 C 14.160156 -9.570312 13.378906 -9.570312 12.179688 -9.570312 L 5.578125 -9.570312 C 5.640625 -9.898438 5.671875 -10.109375 5.671875 -10.199219 C 5.699219 -10.320312 5.730469 -10.410156 5.789062 -10.46875 C 5.851562 -10.558594 5.96875 -10.621094 6.089844 -10.621094 C 6.210938 -10.648438 6.511719 -10.648438 6.929688 -10.648438 L 12.808594 -10.648438 C 13.769531 -10.648438 14.460938 -10.679688 14.820312 -10.738281 C 15.238281 -10.800781 15.539062 -10.859375 15.78125 -10.980469 C 16.199219 -11.191406 16.5 -11.578125 16.679688 -12.148438 C 16.828125 -12.570312 17.011719 -13.5 17.191406 -14.878906 L 6.058594 -14.878906 C 4.980469 -14.878906 4.230469 -14.878906 3.808594 -14.820312 C 3.269531 -14.761719 2.878906 -14.640625 2.609375 -14.429688 C 2.308594 -14.191406 2.070312 -13.800781 1.921875 -13.199219 C 1.800781 -12.78125 1.648438 -11.941406 1.46875 -10.648438 Z M 1.46875 -10.648438 "/></g></g></g><g fill="#0383d0" fill-opacity="1"><g transform="translate(71.291677, 56.289056)"><g><path d="M 7.5 -21 C 6.121094 -21 5.191406 -20.96875 4.738281 -20.910156 C 4.199219 -20.820312 3.808594 -20.609375 3.539062 -20.308594 C 3.328125 -20.070312 3.148438 -19.621094 3.03125 -19.019531 C 2.941406 -18.660156 2.820312 -17.910156 2.640625 -16.769531 L 2.550781 -15.960938 L 6.808594 -15.960938 Z M 2.398438 -14.878906 L 0.601562 -2.191406 C 0.570312 -1.890625 0.539062 -1.710938 0.480469 -1.589844 C 0.449219 -1.441406 0.390625 -1.289062 0.269531 -1.140625 C 0.179688 -1.019531 0.03125 -0.871094 -0.210938 -0.628906 C -0.328125 -0.511719 -0.539062 -0.300781 -0.898438 0 L 0.511719 0 C 1.589844 0 2.339844 -0.03125 2.730469 -0.0585938 C 3.390625 -0.121094 3.871094 -0.300781 4.171875 -0.570312 C 4.441406 -0.839844 4.648438 -1.289062 4.769531 -1.921875 C 4.890625 -2.308594 5.011719 -3.058594 5.160156 -4.199219 L 6.660156 -14.878906 Z M 2.398438 -14.878906 "/></g></g></g><g fill="#0383d0" fill-opacity="1"><g transform="translate(78.191674, 56.289056)"><g><path d="M 1.441406 -10.648438 C 1.320312 -9.628906 1.171875 -8.609375 1.019531 -7.558594 C 0.808594 -6.03125 0.660156 -4.921875 0.539062 -4.230469 C 0.421875 -3.269531 0.359375 -2.609375 0.300781 -2.25 C 0.300781 -2.039062 0.269531 -1.828125 0.269531 -1.648438 C 0.269531 -1.261719 0.328125 -0.960938 0.449219 -0.75 C 0.628906 -0.421875 1.019531 -0.210938 1.621094 -0.0898438 C 2.039062 -0.0585938 2.789062 -0.03125 3.929688 -0.03125 L 10.828125 -0.03125 C 10.769531 0.570312 10.710938 0.960938 10.648438 1.140625 C 10.589844 1.378906 10.53125 1.558594 10.410156 1.679688 C 10.320312 1.769531 10.171875 1.828125 9.960938 1.890625 C 9.78125 1.890625 9.421875 1.921875 8.878906 1.921875 L 3.691406 1.921875 C 2.789062 1.921875 2.128906 1.921875 1.738281 1.980469 C 1.230469 2.039062 0.839844 2.128906 0.570312 2.308594 C 0.210938 2.519531 -0.0898438 2.96875 -0.300781 3.628906 C -0.421875 4.019531 -0.628906 4.859375 -0.898438 6.148438 L 9.960938 6.148438 C 11.398438 6.148438 12.328125 6.089844 12.75 6.03125 C 13.289062 5.941406 13.648438 5.761719 13.890625 5.488281 C 14.160156 5.191406 14.371094 4.738281 14.488281 4.109375 C 14.578125 3.691406 14.699219 2.96875 14.820312 1.921875 L 15.089844 -0.03125 L 15.691406 -4.230469 L 16.050781 -6.898438 L 16.589844 -10.648438 C 16.679688 -11.429688 16.738281 -12 16.738281 -12.300781 L 16.738281 -13.46875 C 16.710938 -13.921875 16.589844 -14.21875 16.351562 -14.398438 C 16.230469 -14.550781 16.019531 -14.640625 15.75 -14.699219 C 15.570312 -14.761719 15.300781 -14.820312 14.96875 -14.820312 C 14.640625 -14.878906 13.949219 -14.878906 12.898438 -14.878906 L 6.300781 -14.878906 C 5.101562 -14.878906 4.289062 -14.878906 3.871094 -14.820312 C 3.210938 -14.761719 2.761719 -14.578125 2.460938 -14.308594 C 2.21875 -14.070312 2.011719 -13.621094 1.828125 -12.988281 C 1.769531 -12.628906 1.621094 -11.851562 1.441406 -10.648438 Z M 6.78125 -10.648438 L 12.328125 -10.648438 L 11.578125 -5.308594 C 11.519531 -4.980469 11.488281 -4.738281 11.429688 -4.621094 C 11.398438 -4.5 11.371094 -4.441406 11.28125 -4.378906 C 11.21875 -4.320312 11.101562 -4.289062 10.949219 -4.261719 C 10.828125 -4.261719 10.621094 -4.230469 10.289062 -4.230469 L 4.828125 -4.230469 L 5.191406 -6.988281 L 5.550781 -9.539062 C 5.609375 -9.839844 5.640625 -10.019531 5.640625 -10.109375 C 5.699219 -10.289062 5.730469 -10.410156 5.789062 -10.46875 C 5.851562 -10.558594 5.96875 -10.621094 6.089844 -10.621094 C 6.210938 -10.648438 6.421875 -10.648438 6.78125 -10.648438 Z M 6.78125 -10.648438 "/></g></g></g><g fill="#0383d0" fill-opacity="1"><g transform="translate(95.231662, 56.289056)"><g><path d="M 1.800781 -10.621094 L 1.648438 -9.539062 L 1.050781 -5.308594 L 0.898438 -4.199219 L 0.601562 -2.101562 C 0.570312 -1.800781 0.539062 -1.589844 0.480469 -1.46875 C 0.449219 -1.351562 0.390625 -1.261719 0.328125 -1.140625 C 0.238281 -1.019531 0.0898438 -0.871094 -0.148438 -0.660156 C -0.269531 -0.539062 -0.511719 -0.328125 -0.898438 0 L 0.480469 0 C 1.648438 0 2.429688 -0.03125 2.851562 -0.0585938 C 3.511719 -0.148438 3.960938 -0.328125 4.230469 -0.628906 C 4.46875 -0.929688 4.679688 -1.378906 4.800781 -2.011719 C 4.890625 -2.398438 5.011719 -3.121094 5.160156 -4.199219 L 5.308594 -5.308594 L 5.910156 -9.539062 C 5.96875 -9.871094 6 -10.078125 6 -10.171875 C 6.058594 -10.351562 6.148438 -10.46875 6.210938 -10.53125 C 6.269531 -10.589844 6.390625 -10.621094 6.511719 -10.621094 C 6.570312 -10.648438 6.660156 -10.648438 6.78125 -10.648438 C 6.898438 -10.648438 7.019531 -10.648438 7.171875 -10.621094 L 12.660156 -10.621094 L 12.511719 -9.539062 L 11.910156 -5.308594 L 11.761719 -4.199219 L 11.160156 0 C 12.660156 0 13.621094 -0.0585938 14.039062 -0.121094 C 14.550781 -0.238281 14.910156 -0.421875 15.148438 -0.691406 C 15.328125 -0.929688 15.480469 -1.261719 15.601562 -1.738281 C 15.71875 -2.128906 15.839844 -2.941406 16.019531 -4.199219 L 16.171875 -5.308594 L 16.769531 -9.539062 L 16.921875 -10.621094 C 17.101562 -11.941406 17.191406 -12.808594 17.191406 -13.199219 C 17.191406 -13.859375 17.039062 -14.28125 16.738281 -14.488281 C 16.5 -14.671875 16.050781 -14.789062 15.421875 -14.820312 C 15.121094 -14.851562 14.699219 -14.851562 14.160156 -14.851562 L 5.730469 -14.851562 C 4.859375 -14.851562 4.230469 -14.820312 3.839844 -14.761719 C 3.300781 -14.699219 2.878906 -14.488281 2.640625 -14.160156 C 2.429688 -13.921875 2.25 -13.46875 2.128906 -12.871094 C 2.070312 -12.511719 1.949219 -11.761719 1.800781 -10.621094 Z M 1.800781 -10.621094 "/></g></g></g><g fill="#0383d0" fill-opacity="1"><g transform="translate(112.691649, 56.289056)"><g><path d="M 1.46875 -10.648438 L 1.320312 -9.570312 C 1.140625 -8.371094 1.019531 -7.589844 0.960938 -7.199219 L 0.960938 -6.839844 C 0.960938 -6.359375 1.078125 -6.03125 1.261719 -5.820312 C 1.5 -5.609375 1.890625 -5.460938 2.488281 -5.398438 C 2.851562 -5.371094 3.449219 -5.339844 4.261719 -5.339844 L 11.609375 -5.339844 C 11.578125 -5.070312 11.550781 -4.890625 11.519531 -4.769531 C 11.519531 -4.621094 11.460938 -4.5 11.398438 -4.410156 C 11.339844 -4.351562 11.25 -4.289062 11.128906 -4.261719 C 11.039062 -4.261719 10.800781 -4.230469 10.441406 -4.230469 L 0.570312 -4.230469 C 0.390625 -2.910156 0.300781 -2.070312 0.300781 -1.648438 C 0.300781 -1.199219 0.359375 -0.871094 0.511719 -0.628906 C 0.691406 -0.421875 0.960938 -0.269531 1.320312 -0.148438 C 1.738281 -0.0898438 2.699219 -0.03125 4.261719 -0.03125 L 10.859375 -0.03125 C 12.390625 -0.03125 13.378906 -0.0898438 13.800781 -0.148438 C 14.25 -0.269531 14.578125 -0.449219 14.820312 -0.691406 C 15 -0.929688 15.121094 -1.230469 15.238281 -1.621094 C 15.359375 -2.039062 15.539062 -2.910156 15.71875 -4.230469 L 15.871094 -5.339844 C 16.019531 -6.539062 16.109375 -7.320312 16.109375 -7.679688 L 16.109375 -7.859375 C 16.109375 -8.398438 16.019531 -8.789062 15.808594 -9.03125 C 15.601562 -9.269531 15.179688 -9.449219 14.519531 -9.511719 C 14.160156 -9.570312 13.378906 -9.570312 12.179688 -9.570312 L 5.578125 -9.570312 C 5.640625 -9.898438 5.671875 -10.109375 5.671875 -10.199219 C 5.699219 -10.320312 5.730469 -10.410156 5.789062 -10.46875 C 5.851562 -10.558594 5.96875 -10.621094 6.089844 -10.621094 C 6.210938 -10.648438 6.511719 -10.648438 6.929688 -10.648438 L 12.808594 -10.648438 C 13.769531 -10.648438 14.460938 -10.679688 14.820312 -10.738281 C 15.238281 -10.800781 15.539062 -10.859375 15.78125 -10.980469 C 16.199219 -11.191406 16.5 -11.578125 16.679688 -12.148438 C 16.828125 -12.570312 17.011719 -13.5 17.191406 -14.878906 L 6.058594 -14.878906 C 4.980469 -14.878906 4.230469 -14.878906 3.808594 -14.820312 C 3.269531 -14.761719 2.878906 -14.640625 2.609375 -14.429688 C 2.308594 -14.191406 2.070312 -13.800781 1.921875 -13.199219 C 1.800781 -12.78125 1.648438 -11.941406 1.46875 -10.648438 Z M 1.46875 -10.648438 "/></g></g></g></svg>